<svg width="100" height="100" viewBox="0 0 100 100" fill="none" xmlns="http://www.w3.org/2000/svg">
<path d="M93.75 12.5H90.625V9.375H87.5V6.25H93.75V12.5Z" fill="#4B77A6"/>
<path d="M56.25 18.75H81.25V21.875H56.25V18.75Z" fill="#4B77A6"/>
<path d="M56.25 25H78.125V28.125H56.25V25Z" fill="#4B77A6"/>
<path d="M56.25 34.375H73.4375V37.5H56.25V34.375Z" fill="#4B77A6"/>
<path d="M56.25 40.625H73.4375V43.75H56.25V40.625Z" fill="#4B77A6"/>
<path d="M50 65.625C53.4515 65.625 56.25 62.8265 56.25 59.375C56.25 55.9235 53.4515 53.125 50 53.125C46.5485 53.125 43.75 55.9235 43.75 59.375C43.75 62.8265 46.5485 65.625 50 65.625ZM50 56.25C51.7258 56.25 53.125 57.6492 53.125 59.375C53.125 61.1008 51.7258 62.5 50 62.5C48.2742 62.5 46.875 61.1008 46.875 59.375C46.875 57.6492 48.2742 56.25 50 56.25Z" fill="#4B77A6"/>
<path d="M95.3125 0H4.6875C2.09885 0 0 2.09885 0 4.6875V67.1875C0 69.7762 2.09885 71.875 4.6875 71.875H37.5V79.6875C37.5 82.2762 35.4012 84.375 32.8125 84.375H25V93.75H72.0314C72.7791 97.3854 75.9766 99.9954 79.6875 100H85.9375C90.2504 99.9947 93.7447 96.5004 93.75 92.1875V71.875H95.3125C97.9012 71.875 100 69.7762 100 67.1875V4.6875C100 2.09885 97.9012 0 95.3125 0ZM71.875 90.625H28.125V87.5H71.875V90.625ZM50 81.3156C52.5887 81.3156 54.6875 79.2168 54.6875 76.6281V71.875H59.375V79.6875C59.3811 81.3835 59.9442 83.0307 60.9779 84.375H39.0221C40.0558 83.0307 40.6189 81.3835 40.625 79.6875V71.875H45.3125V76.6281C45.3125 79.2168 47.4113 81.3156 50 81.3156ZM48.4375 76.6281V71.875H51.5625V76.6281C51.5625 77.491 50.8629 78.1906 50 78.1906C49.1371 78.1906 48.4375 77.491 48.4375 76.6281ZM71.875 84.375H67.1875C64.5988 84.375 62.5 82.2762 62.5 79.6875V71.875H71.875V84.375ZM71.875 68.75H4.6875C3.82462 68.75 3.125 68.0504 3.125 67.1875V50H71.875V68.75ZM90.625 92.1875C90.625 94.7762 88.5262 96.875 85.9375 96.875H79.6875C77.0988 96.875 75 94.7762 75 92.1875V90.625H90.625V92.1875ZM90.625 87.5H75V84.375H90.625V87.5ZM87.5 30.4688V30.381L89.9796 34.5139L85.9375 36.5341L82.8125 34.9716L79.6875 36.5341L75.6454 34.5139L78.0716 30.4688H87.5ZM79.9469 27.3438L82.8125 22.567L85.6781 27.3438H79.9469ZM84.375 39.2471V81.25H81.25V39.2471L82.8125 38.4659L84.375 39.2471ZM78.125 39.2471V81.25H75V37.6846L78.125 39.2471ZM90.625 81.25H87.5V39.2471L90.625 37.6846V81.25ZM96.875 67.1875C96.875 68.0504 96.1754 68.75 95.3125 68.75H93.75V50H96.875V67.1875ZM96.875 46.875H93.75V34.7237L82.8125 16.4955L71.875 34.7237V46.875H3.125V4.6875C3.125 3.82462 3.82462 3.125 4.6875 3.125H95.3125C96.1754 3.125 96.875 3.82462 96.875 4.6875V46.875Z" fill="#4B77A6"/>
<path d="M9.375 21.875H21.875V9.375H9.375V21.875ZM12.5 12.5H18.75V18.75H12.5V12.5Z" fill="#4B77A6"/>
<path d="M9.375 40.625H21.875V28.125H9.375V40.625ZM18.75 37.5H14.7095L18.75 33.4595V37.5ZM12.5 31.25H16.5405L12.5 35.2905V31.25Z" fill="#4B77A6"/>
<path d="M25 21.875H37.5V9.375H25V21.875ZM34.375 18.75H30.3345L34.375 14.7095V18.75ZM28.125 12.5H32.1655L28.125 16.5405V12.5Z" fill="#4B77A6"/>
<path d="M25 40.625H37.5V28.125H25V40.625ZM28.125 31.25H34.375V37.5H28.125V31.25Z" fill="#4B77A6"/>
<path d="M40.625 21.875H53.125V9.375H40.625V21.875ZM43.75 12.5H50V18.75H43.75V12.5Z" fill="#4B77A6"/>
<path d="M40.625 40.625H53.125V28.125H40.625V40.625ZM43.75 31.25H50V37.5H43.75V31.25Z" fill="#4B77A6"/>
</svg>
