<svg width="100" height="100" viewBox="0 0 100 100" fill="none" xmlns="http://www.w3.org/2000/svg">
<path d="M34.375 76.5625H53.125V79.6875H34.375V76.5625Z" fill="#4B77A6"/>
<path d="M34.375 82.8125H53.125V85.9375H34.375V82.8125Z" fill="#4B77A6"/>
<path d="M34.375 89.0625H43.75V92.1875H34.375V89.0625Z" fill="#4B77A6"/>
<path d="M35.9375 20.3125V21.875H39.0625V14.0625C39.0625 9.74808 35.5644 6.25 31.25 6.25C26.9356 6.25 23.4375 9.74808 23.4375 14.0625V25H26.5625V20.3125H35.9375ZM31.25 9.375C33.8387 9.375 35.9375 11.4738 35.9375 14.0625V17.1875H26.5625V14.0625C26.5625 11.4738 28.6613 9.375 31.25 9.375Z" fill="#4B77A6"/>
<path d="M78.125 87.5H81.25V90.625H78.125V87.5Z" fill="#4B77A6"/>
<path d="M90.625 39.0625H93.75V42.1875H90.625V39.0625Z" fill="#4B77A6"/>
<path d="M10.9375 93.75H20.3125V84.375H25V75H6.25V84.375H10.9375V93.75ZM9.375 81.25V78.125H21.875V81.25H17.1875V90.625H14.0625V81.25H9.375Z" fill="#4B77A6"/>
<path d="M31.25 40.625H0V100H59.375V68.75H31.25V40.625ZM28.125 96.875H3.125V71.875H28.125V96.875ZM4.25491 68.75L7.8125 62.5252L11.3701 68.75H4.25491ZM19.397 68.75L21.991 66.156L25.2327 68.75H19.397ZM28.125 67.0609L21.759 61.969L14.978 68.75H14.9689L7.8125 56.2248L3.125 64.4279V43.75H28.125V67.0609ZM56.25 71.875V96.875H31.25V71.875H56.25Z" fill="#4B77A6"/>
<path d="M18.75 59.375C22.2015 59.375 25 56.5765 25 53.125C25 49.6735 22.2015 46.875 18.75 46.875C15.2985 46.875 12.5 49.6735 12.5 53.125C12.5 56.5765 15.2985 59.375 18.75 59.375ZM18.75 50C20.4758 50 21.875 51.3992 21.875 53.125C21.875 54.8508 20.4758 56.25 18.75 56.25C17.0242 56.25 15.625 54.8508 15.625 53.125C15.625 51.3992 17.0242 50 18.75 50Z" fill="#4B77A6"/>
<path d="M92.1875 32.8125C90.8463 32.8209 89.5309 33.1787 88.3705 33.8516L70.4018 26.2253L71.6232 23.3482L64.8918 20.4926L63.7985 11.5387L47.1878 4.48914L46.875 4.72488V0H15.625V31.25H34.7328L34.98 33.255L51.5862 40.3122L58.7906 34.8831L65.5205 37.7403L66.7419 34.8625L84.6092 42.4423C84.8755 43.5326 85.376 44.5518 86.0748 45.43L77.2858 80.1048C74.0715 81.1386 71.8872 84.1232 71.875 87.5V96.875H65.8203V100H93.75V96.875H87.5V87.5C87.5008 85.9512 87.0392 84.4376 86.1732 83.1528L95.1363 47.85C98.5817 46.4325 100.547 42.778 99.8306 39.122C99.1135 35.4652 95.9137 32.8239 92.1875 32.8125ZM46.875 16.4642L48.5077 15.2344L54.2191 17.6559L54.0436 24.3752L49.3347 29.1656L46.875 28.125V16.4642ZM33.2184 18.9278L34.3483 28.125H18.75V3.125H43.75V26.7937L43.6234 26.7387L43.1831 23.1575L33.2184 18.9278ZM57.9376 31.6063L51.1452 36.7188L37.8639 31.0799L36.9858 23.9189L40.3061 25.325L40.7471 28.9062L50.0732 32.8644L57.1342 25.6767L57.3982 15.6029L48.069 11.6516L46.875 12.5504V8.6441L47.6265 8.07648L60.9077 13.7154L61.9438 22.1535L57.9376 31.6063ZM63.8657 33.6372L60.9894 32.4173L64.6515 23.7892L67.5278 25L63.8657 33.6372ZM84.5451 39.0205L67.9688 31.9778L69.1887 29.1031L85.8047 36.1549C85.1944 37.0132 84.7656 37.9875 84.5451 39.0175V39.0205ZM84.375 96.875H75V87.5C75 84.9113 77.0988 82.8125 79.6875 82.8125C82.2762 82.8125 84.375 84.9113 84.375 87.5V96.875ZM83.5564 80.7549C82.6439 80.2299 81.6338 79.8981 80.5878 79.7798L88.7497 47.6044C89.6935 48.0713 90.7227 48.3406 91.7732 48.3955L83.5564 80.7549ZM92.1875 45.3125C89.5988 45.3125 87.5 43.2137 87.5 40.625C87.5 38.0363 89.5988 35.9375 92.1875 35.9375C94.7762 35.9375 96.875 38.0363 96.875 40.625C96.875 43.2137 94.7762 45.3125 92.1875 45.3125Z" fill="#4B77A6"/>
<path d="M56.8718 40.2359L52.0309 43.8828L45.9221 41.2956L44.7029 44.1734L52.4704 47.4625L58.7532 42.733L56.8718 40.2359Z" fill="#4B77A6"/>
<path d="M67.2768 14.2517L70.3796 13.8733L69.5656 7.19531L63.1126 4.45331L61.8874 7.32654L66.6824 9.36588L67.2768 14.2517Z" fill="#4B77A6"/>
<path d="M9.375 9.375H12.5V21.875H9.375V9.375Z" fill="#4B77A6"/>
<path d="M3.125 12.5H6.25V28.125H3.125V12.5Z" fill="#4B77A6"/>
</svg>
