<svg width="100" height="100" viewBox="0 0 100 100" fill="none" xmlns="http://www.w3.org/2000/svg">
<g clip-path="url(#clip0)">
<path d="M51.6309 81.2007H48.4976C47.6325 81.2007 46.931 80.4992 46.931 79.6341C46.931 78.7689 47.6325 78.0675 48.4976 78.0675H54.7641V74.9342H51.6309V71.801H48.4976V74.9342C45.9022 74.9342 43.7978 77.0386 43.7978 79.6341C43.7978 82.2295 45.9022 84.3339 48.4976 84.3339H51.6309C52.496 84.3339 53.1975 85.0354 53.1975 85.9005C53.1975 86.7657 52.496 87.4671 51.6309 87.4671H45.3644V90.6004H48.4976V93.7336H51.6309V90.6004C54.2263 90.6004 56.3307 88.496 56.3307 85.9005C56.3307 83.3051 54.2263 81.2007 51.6309 81.2007Z" fill="#4B77A6"/>
<path d="M55.8717 38.4432L53.6565 36.2279L51.6309 38.2535V27.9359H48.4976V38.2535L46.4721 36.2279L44.2568 38.4432L50.0643 44.2507L55.8717 38.4432Z" fill="#4B77A6"/>
<path d="M50.0643 65.5346C40.5468 65.5346 32.8315 73.2499 32.8315 82.7673C32.8315 92.2848 40.5468 100 50.0643 100C59.5818 100 67.297 92.2848 67.297 82.7673C67.2856 73.2545 59.5772 65.5461 50.0643 65.5346ZM50.0643 96.8668C42.2771 96.8668 35.9648 90.5545 35.9648 82.7673C35.9648 74.9802 42.2771 68.6678 50.0643 68.6678C57.8515 68.6678 64.1638 74.9802 64.1638 82.7673C64.1546 90.5507 57.8476 96.8577 50.0643 96.8668Z" fill="#4B77A6"/>
<path d="M55.6338 2.60694L53.8943 0L50.0642 2.55339L46.2341 0L44.4947 2.60694L50.0642 6.32L55.6338 2.60694Z" fill="#4B77A6"/>
<path d="M55.6338 11.2233L53.8943 8.61633L50.0642 11.1697L46.2341 8.61633L44.4947 11.2233L50.0642 14.9363L55.6338 11.2233Z" fill="#4B77A6"/>
<path d="M75.9998 2.60694L74.2603 0L70.4302 2.55339L66.6001 0L64.8606 2.60694L70.4302 6.32L75.9998 2.60694Z" fill="#4B77A6"/>
<path d="M75.9998 11.2233L74.2603 8.61633L70.4302 11.1697L66.6001 8.61633L64.8606 11.2233L70.4302 14.9363L75.9998 11.2233Z" fill="#4B77A6"/>
<path d="M35.2679 2.60694L33.5284 0L29.6983 2.55339L25.8682 0L24.1287 2.60694L29.6983 6.32L35.2679 2.60694Z" fill="#4B77A6"/>
<path d="M35.2679 11.2233L33.5284 8.61633L29.6983 11.1697L25.8682 8.61633L24.1287 11.2233L29.6983 14.9363L35.2679 11.2233Z" fill="#4B77A6"/>
<path d="M42.2312 62.8412L57.8973 58.9247V48.9505L78.2633 28.5845V18.5362H21.8652V28.5845L42.2312 48.9505V62.8412ZM24.9985 27.2872V21.6694H75.1301V27.2872L54.7641 47.6532V56.4776L45.3644 58.8275V47.6532L24.9985 27.2872Z" fill="#4B77A6"/>
<path d="M84.5297 62.4014H87.663V100H84.5297V62.4014Z" fill="#4B77A6"/>
<path d="M78.2633 68.6678H81.3965V100H78.2633V68.6678Z" fill="#4B77A6"/>
<path d="M12.4656 62.4014H15.5988V100H12.4656V62.4014Z" fill="#4B77A6"/>
<path d="M18.732 68.6678H21.8652V100H18.732V68.6678Z" fill="#4B77A6"/>
<path d="M71.9968 74.9343H75.13V100H71.9968V74.9343Z" fill="#4B77A6"/>
<path d="M24.9985 74.9343H28.1317V100H24.9985V74.9343Z" fill="#4B77A6"/>
<path d="M24.9985 68.6678H28.1317V71.801H24.9985V68.6678Z" fill="#4B77A6"/>
<path d="M18.732 62.4014H21.8652V65.5346H18.732V62.4014Z" fill="#4B77A6"/>
<path d="M12.4656 56.1349H15.5988V59.2682H12.4656V56.1349Z" fill="#4B77A6"/>
<path d="M71.9968 68.6678H75.13V71.801H71.9968V68.6678Z" fill="#4B77A6"/>
<path d="M78.2633 62.4014H81.3965V65.5346H78.2633V62.4014Z" fill="#4B77A6"/>
<path d="M84.5297 56.1349H87.663V59.2682H84.5297V56.1349Z" fill="#4B77A6"/>
</g>
<defs>
<clipPath id="clip0">
<rect width="100" height="100" fill="white"/>
</clipPath>
</defs>
</svg>
