<svg width="100" height="100" viewBox="0 0 100 100" fill="none" xmlns="http://www.w3.org/2000/svg">
<g clip-path="url(#clip0)">
<path d="M74.9472 24.9637H90.5392V28.0821H74.9472V24.9637Z" fill="#4B77A6"/>
<path d="M74.9472 31.2006H84.3024V34.319H74.9472V31.2006Z" fill="#4B77A6"/>
<path d="M87.4208 90.45H81.184C77.8448 90.4462 74.6465 89.1063 72.3031 86.7279C69.959 84.3503 68.6655 81.1322 68.7104 77.7938C68.8536 71.0675 74.2704 65.6483 80.9967 65.5029H81.184C88.0702 65.5098 93.6507 71.0903 93.6576 77.9765V79.5357C93.6576 82.1189 91.5631 84.2133 88.98 84.2133C86.3968 84.2133 84.3024 82.1189 84.3024 79.5357V77.9765H87.4208V79.5357C87.4208 80.3967 88.1189 81.0949 88.98 81.0949C89.841 81.0949 90.5392 80.3967 90.5392 79.5357V77.9765C90.5445 75.4702 89.5373 73.0682 87.7451 71.3156C85.975 69.5357 83.5517 68.5612 81.0424 68.6213C76.023 68.7888 71.9933 72.82 71.8288 77.8394C71.7953 80.3427 72.766 82.7561 74.5239 84.5391C76.281 86.3229 78.68 87.3286 81.184 87.3317H87.4208V90.45Z" fill="#4B77A6"/>
<path d="M81.184 84.2133C77.7398 84.2133 74.9472 81.4208 74.9472 77.9765C74.9472 74.5323 77.7398 71.7397 81.184 71.7397C84.6282 71.7397 87.4208 74.5323 87.4208 77.9765C87.4208 81.4208 84.6282 84.2133 81.184 84.2133ZM81.184 74.8581C79.4619 74.8581 78.0656 76.2544 78.0656 77.9765C78.0656 79.6987 79.4619 81.0949 81.184 81.0949C82.9061 81.0949 84.3024 79.6987 84.3024 77.9765C84.3024 76.2544 82.9061 74.8581 81.184 74.8581Z" fill="#4B77A6"/>
<path d="M9.91702 28.539L25.509 12.947L27.7138 15.1526L12.1226 30.7438L9.91702 28.539Z" fill="#4B77A6"/>
<path d="M12.5794 15.6086H15.6978V18.727H12.5794V15.6086Z" fill="#4B77A6"/>
<path d="M21.9346 24.9637H25.053V28.0821H21.9346V24.9637Z" fill="#4B77A6"/>
<path d="M29.809 67.8973L36.4242 61.2821L38.629 63.4869L32.0138 70.1021L29.809 67.8973Z" fill="#4B77A6"/>
<path d="M29.5417 58.8086L31.7465 56.6038L33.9521 58.8086L31.7465 61.0134L29.5417 58.8086Z" fill="#4B77A6"/>
<path d="M38.8961 68.1637L41.1009 65.9589L43.3057 68.1637L41.1009 70.3685L38.8961 68.1637Z" fill="#4B77A6"/>
<path d="M59.3553 6.25342H62.4737V9.37181H59.3553V6.25342Z" fill="#4B77A6"/>
<path d="M37.5265 6.25342H40.6449V9.37181H37.5265V6.25342Z" fill="#4B77A6"/>
<path d="M43.7633 6.25342H56.2369V9.37181H43.7633V6.25342Z" fill="#4B77A6"/>
<path d="M50.0001 84.2131C47.4169 84.2131 45.3225 86.3075 45.3225 88.8907C45.3225 91.4739 47.4169 93.5683 50.0001 93.5683C52.5833 93.5683 54.6777 91.4739 54.6777 88.8907C54.6777 86.3075 52.5833 84.2131 50.0001 84.2131ZM50.0001 90.4499C49.139 90.4499 48.4409 89.7518 48.4409 88.8907C48.4409 88.0297 49.139 87.3315 50.0001 87.3315C50.8612 87.3315 51.5593 88.0297 51.5593 88.8907C51.5593 89.7518 50.8612 90.4499 50.0001 90.4499Z" fill="#4B77A6"/>
<path d="M81.6515 40.5557H99.8943V18.727H78.0656V4.69425C78.0656 2.11107 75.9712 0.0166626 73.388 0.0166626H26.6122C24.517 0.0257985 22.6837 1.4274 22.1249 3.44644C14.7644 2.08062 7.29807 5.23327 3.14428 11.4609C-1.00951 17.6886 -1.05139 25.7929 3.03846 32.0639C7.12754 38.3342 14.5604 41.5637 21.9346 40.2733V95.1276C21.9346 97.7108 24.029 99.8052 26.6122 99.8052H73.388C75.4832 99.7961 77.3165 98.3944 77.8753 96.3746C85.2358 97.7412 92.7013 94.5886 96.8551 88.3609C101.009 82.1325 101.051 74.0282 96.9617 67.7579C92.8726 61.4876 85.4398 58.2581 78.0656 59.5485V42.9509L81.6515 40.5557ZM26.6122 3.13505H73.388C74.2491 3.13505 74.9472 3.83319 74.9472 4.69425V12.4902H34.9944C32.7797 8.6737 29.2913 5.76011 25.142 4.25877C25.3263 3.5987 25.9262 3.14038 26.6122 3.13505ZM70.2696 40.5557V48.1462L74.9472 45.0278V60.3571C67.4817 63.0019 62.4874 70.0564 62.4737 77.9764H25.053V39.464C29.7374 37.8264 33.5745 34.386 35.7115 29.9063C37.8486 25.4274 38.1089 20.2801 36.4348 15.6086H74.9472V18.727H65.592V40.5557H70.2696ZM18.8162 37.4374C10.2048 37.4374 3.22422 30.4568 3.22422 21.8454C3.22422 13.234 10.2048 6.25345 18.8162 6.25345C27.4275 6.25345 34.4081 13.234 34.4081 21.8454C34.3982 30.453 27.4237 37.4275 18.8162 37.4374ZM73.388 96.6868H26.6122C25.7511 96.6868 25.053 95.9887 25.053 95.1276V81.0948H62.7561C63.892 87.7443 68.514 93.27 74.8581 95.5623C74.6731 96.2231 74.074 96.6815 73.388 96.6868ZM81.184 62.3845C89.7954 62.3845 96.776 69.3651 96.776 77.9764C96.776 86.5878 89.7954 93.5684 81.184 93.5684C72.5726 93.5684 65.592 86.5878 65.592 77.9764C65.6012 69.3689 72.5765 62.3936 81.184 62.3845ZM73.388 42.3205V37.4374H68.7104V21.8454H96.776V37.4374H80.7158L73.388 42.3205Z" fill="#4B77A6"/>
<path d="M28.383 50.7811L41.3514 58.5611L49.1299 71.5272L59.5113 40.3997L28.383 50.7811ZM35.8021 51.595L51.2677 46.4385L42.246 55.4617L35.8021 51.595ZM48.3176 64.1089L44.4508 57.6665L53.4725 48.6448L48.3176 64.1089Z" fill="#4B77A6"/>
<path d="M56.6944 61.9284L58.8992 59.7236L63.5776 64.4012L61.3728 66.606L56.6944 61.9284Z" fill="#4B77A6"/>
<path d="M33.3065 38.5405L35.5113 36.3357L40.1896 41.0133L37.9841 43.2181L33.3065 38.5405Z" fill="#4B77A6"/>
<path d="M0.105835 65.5029H3.22423V99.8052H0.105835V65.5029Z" fill="#4B77A6"/>
<path d="M12.5794 77.9764H15.6978V99.8052H12.5794V77.9764Z" fill="#4B77A6"/>
<path d="M6.34259 71.7397H9.46098V99.8053H6.34259V71.7397Z" fill="#4B77A6"/>
</g>
<defs>
<clipPath id="clip0">
<rect width="100" height="100" fill="white"/>
</clipPath>
</defs>
</svg>
