<svg width="100" height="100" viewBox="0 0 100 100" fill="none" xmlns="http://www.w3.org/2000/svg">
<path d="M25 87.5H28.125V96.875H25V87.5Z" fill="#4B77A6"/>
<path d="M71.875 87.5H75V96.875H71.875V87.5Z" fill="#4B77A6"/>
<path d="M96.653 7.8125C96.0815 5.62592 94.3741 3.91846 92.1875 3.34702V0H89.0625V3.34702C86.8759 3.91846 85.1685 5.62592 84.597 7.8125H81.25V10.9375H84.597C85.1685 13.1241 86.8759 14.8315 89.0625 15.403V18.75H92.1875V15.403C94.3741 14.8315 96.0815 13.1241 96.653 10.9375H100V7.8125H96.653ZM90.625 12.5C88.8992 12.5 87.5 11.1008 87.5 9.375C87.5 7.64923 88.8992 6.25 90.625 6.25C92.3508 6.25 93.75 7.64923 93.75 9.375C93.75 11.1008 92.3508 12.5 90.625 12.5Z" fill="#4B77A6"/>
<path d="M81.8924 72.1878L60.9375 66.0187V60.2112L65.625 57.0862V52.8122L66.4185 51.8425C67.9237 49.9985 68.7469 47.6921 68.75 45.3125C68.7477 43.3266 67.4965 41.5566 65.625 40.892V31.25C65.6204 28.1616 63.3652 25.5379 60.3127 25.0702C57.8217 21.8018 48.9685 19.6015 41.9113 20.7436C36.7622 21.5798 28.125 24.8673 28.125 37.5V40.0284L30.3856 38.8985C31.6582 38.4041 33.0101 38.15 34.375 38.15V40.892C32.5035 41.5566 31.2523 43.3266 31.25 45.3125C31.2523 47.6937 32.0755 50.0015 33.5815 51.8471L34.375 52.8122V57.0831L39.0625 60.2081V66.0156L18.1076 72.1878C14.7942 73.1781 12.5175 76.2184 12.5 79.6768V100H15.625V79.6768C15.6334 77.6001 16.9998 75.7744 18.9888 75.1801L34.375 70.6551V100H37.5V69.7342L39.4249 69.1689C40.519 73.4322 44.0788 76.6129 48.4375 77.2217V87.5H51.5625V77.2217C55.9212 76.6129 59.481 73.4322 60.5751 69.1689L62.5 69.7342V100H65.625V70.6551L81.0112 75.1862C82.9979 75.7797 84.3636 77.6024 84.375 79.6768V100H87.5V79.6768C87.4825 76.2184 85.2058 73.1781 81.8924 72.1878ZM31.3545 35.3501C32.1671 27.3972 37.5153 24.7109 42.0593 23.8892C49.6078 22.5205 57.3715 25.6737 57.8918 27.0561L58.2481 28.125H59.375C61.1008 28.125 62.5 29.5242 62.5 31.25V35.6705C60.6285 35.006 59.3773 33.2359 59.375 31.25H56.25C56.295 32.0114 56.0104 32.7553 55.4688 33.2924C53.2669 35.4248 46.9124 35.228 41.3078 35.0578C37.989 34.8221 34.6542 34.9205 31.3545 35.3501ZM57.8125 67.0014L57.7751 67.1578C57.3814 71.1571 54.0184 74.2058 50 74.2058C45.9816 74.2058 42.6186 71.1571 42.2249 67.1578L42.1875 67.0113V62.294L44.8441 64.0625H55.1559L57.8125 62.294V67.0014ZM54.2191 60.9375H45.7809L37.5 55.4138V51.6998L36.0001 49.8688C34.951 48.5817 34.3773 46.9727 34.375 45.3125C34.375 44.4496 35.0746 43.75 35.9375 43.75H37.5V38.0936C38.7077 38.1066 39.9612 38.1424 41.2079 38.1813C47.6936 38.3797 54.3968 38.5857 57.5752 35.5988C58.7219 37.2994 60.4904 38.4812 62.5 38.8909V43.75H64.0625C64.9254 43.75 65.625 44.4496 65.625 45.3125C65.6235 46.9727 65.049 48.5809 63.9999 49.8673L62.5 51.6998V55.4138L54.2191 60.9375Z" fill="#4B77A6"/>
<path d="M51.5625 4.72641V0H48.4375V4.72641C24.6567 5.5748 5.5748 24.6567 4.72641 48.4375H0V51.5625H4.73557C4.97437 58.5579 6.82983 65.4037 10.1562 71.5622L12.9028 70.0737C9.82437 64.3715 8.09937 58.0383 7.86057 51.5625H12.5V48.4375H7.85141C8.69522 26.3817 26.3817 8.69522 48.4375 7.85141V12.5H51.5625V7.85141C73.6183 8.69522 91.3048 26.3817 92.1486 48.4375H87.5V51.5625H92.1394C91.9022 58.0391 90.1779 64.3745 87.1002 70.0783L89.8438 71.5622C93.1694 65.403 95.0241 58.5579 95.2644 51.5625H100V48.4375H95.2736C94.4252 24.6567 75.3433 5.5748 51.5625 4.72641Z" fill="#4B77A6"/>
<path d="M78.8597 65.6075C83.6731 56.7284 84.1141 46.122 80.053 36.8737L77.1904 38.1234C80.8647 46.489 80.4665 56.0829 76.1124 64.1159L78.8597 65.6075Z" fill="#4B77A6"/>
<path d="M19.947 36.8751C15.8859 46.1227 16.3269 56.7283 21.1403 65.6074L23.8876 64.1174C19.5335 56.0844 19.1368 46.4897 22.8126 38.1248L19.947 36.8751Z" fill="#4B77A6"/>
<path d="M48.4375 43.75H45.3125V53.125H51.5625V50H48.4375V43.75Z" fill="#4B77A6"/>
</svg>
