<svg width="100" height="100" viewBox="0 0 100 100" fill="none" xmlns="http://www.w3.org/2000/svg">
<path d="M90.625 56.25H93.75V59.375H90.625V56.25Z" fill="#4B77A6"/>
<path d="M31.25 85.9375H37.5V89.0625H31.25V85.9375Z" fill="#4B77A6"/>
<path d="M98.4375 31.25H98.3093C96.0793 27.3872 91.9601 25.0053 87.5 25H53.125V12.5H71.6705L67.5003 6.25L71.6675 0H50V25H34.375C27.475 25.0076 21.8826 30.6 21.875 37.5H0V65.625H21.875V84.375C21.875 91.2788 27.4712 96.875 34.375 96.875C41.2788 96.875 46.875 91.2788 46.875 84.375V65.625H62.5V100H65.625V65.625H71.875V100H75V65.625H100V37.5C100.002 35.3874 99.4637 33.3092 98.4375 31.4629V31.25ZM53.125 3.125H65.8295L63.7497 6.25L65.8325 9.375H53.125V3.125ZM76.5625 28.125H87.5C90.1619 28.1273 92.6964 29.2641 94.4687 31.25H89.875L83.625 39.0625H81.028C80.4565 36.8759 78.7491 35.1685 76.5625 34.597V28.125ZM78.125 40.625C78.125 42.3508 76.7258 43.75 75 43.75C73.2742 43.75 71.875 42.3508 71.875 40.625C71.875 38.8992 73.2742 37.5 75 37.5C76.7258 37.5 78.125 38.8992 78.125 40.625ZM59.375 28.125H62.5V32.0312L59.375 34.375V28.125ZM40.4373 40.625L23.4375 52.7672L6.43768 40.625H40.4373ZM3.125 42.0982L15.3122 50.7988L3.125 60.7643V42.0982ZM5.93719 62.5L17.9375 52.681L23.4375 56.6078L28.9345 52.681L40.9378 62.5H5.93719ZM43.75 84.375C43.75 89.5523 39.5523 93.75 34.375 93.75C29.1977 93.75 25 89.5523 25 84.375V65.625H43.75V84.375ZM43.75 60.7643L31.5628 50.7988L43.75 42.0982V60.7643ZM25 37.5C25 32.3227 29.1977 28.125 34.375 28.125C39.5523 28.125 43.75 32.3227 43.75 37.5H25ZM42.6155 28.125H56.25V40.847C54.0634 41.4185 52.356 43.1259 51.7845 45.3125H46.875V37.5C46.8727 33.9073 45.3201 30.4901 42.6155 28.125ZM57.8125 43.75C59.5383 43.75 60.9375 45.1492 60.9375 46.875C60.9375 48.6008 59.5383 50 57.8125 50C56.0867 50 54.6875 48.6008 54.6875 46.875C54.6875 45.1492 56.0867 43.75 57.8125 43.75ZM96.875 62.5H46.875V59.375H87.5V56.25H67.8345L70.9595 53.125H96.875V62.5ZM96.875 50H69.6655L63.4155 56.25H46.875V48.4375H51.7845C52.5398 51.3863 55.3139 53.3592 58.3473 53.1052C61.3815 52.8503 63.7878 50.444 64.0427 47.4098C64.2967 44.3764 62.3238 41.6023 59.375 40.847V38.2812L65.625 33.5938V28.125H73.4375V34.597C70.4887 35.3523 68.5158 38.1264 68.7698 41.1598C69.0247 44.194 71.431 46.6003 74.4652 46.8552C77.4986 47.1092 80.2727 45.1363 81.028 42.1875H96.875V50ZM96.875 39.0625H87.6251L91.375 34.375H96.328C96.6873 35.3775 96.8719 36.4349 96.875 37.5V39.0625Z" fill="#4B77A6"/>
<path d="M0 0H34.375V3.125H0V0Z" fill="#4B77A6"/>
<path d="M0 6.25H25V9.375H0V6.25Z" fill="#4B77A6"/>
<path d="M0 12.5H15.625V15.625H0V12.5Z" fill="#4B77A6"/>
<path d="M78.125 7.8125H93.75V10.9375H78.125V7.8125Z" fill="#4B77A6"/>
<path d="M78.125 1.5625H100V4.6875H78.125V1.5625Z" fill="#4B77A6"/>
</svg>
