<svg width="100" height="100" viewBox="0 0 100 100" fill="none" xmlns="http://www.w3.org/2000/svg">
<g clip-path="url(#clip0)">
<path d="M48.4301 43.7639H51.5547V46.8884H48.4301V43.7639Z" fill="#4B77A6"/>
<path d="M18.7472 50.0129H64.0528V53.1375H18.7472V50.0129Z" fill="#4B77A6"/>
<path d="M18.7472 57.8243H48.4302V60.9489H18.7472V57.8243Z" fill="#4B77A6"/>
<path d="M18.7472 65.6356H32.8075V68.7602H18.7472V65.6356Z" fill="#4B77A6"/>
<path d="M47.3409 21.4109L60.9351 7.83569L63.1427 10.0471L49.5485 23.6216L47.3409 21.4109Z" fill="#4B77A6"/>
<path d="M48.1837 29.2222L65.2626 12.1663L67.471 14.3777L50.3914 31.4329L48.1837 29.2222Z" fill="#4B77A6"/>
<path d="M50.6538 35.5673L69.6656 16.5692L71.8748 18.7791L52.8629 37.7772L50.6538 35.5673Z" fill="#4B77A6"/>
<path d="M93.7358 42.2016C93.7304 41.422 93.5306 40.6561 93.153 39.9742C102.08 31.0354 102.306 16.628 93.6656 7.41306C85.0251 -1.80185 70.6321 -2.50059 61.1388 5.83402L56.6664 1.36082L55.5618 2.46539C46.0524 11.9587 44.124 26.6629 50.8643 38.2868L51.6455 39.6378L57.0974 36.4904C59.1097 39.4806 61.7826 41.9697 64.9087 43.7639H54.6792V46.8884H76.5509C81.6275 46.8884 86.5652 45.2277 90.6113 42.1612V42.2016V87.5072H56.2415V89.0695C56.2415 89.9323 55.542 90.6318 54.6792 90.6318H45.3056C44.4429 90.6318 43.7434 89.9323 43.7434 89.0695V87.5072H9.37358V42.2016C9.37358 41.3389 10.0731 40.6394 10.9358 40.6394H46.8679V37.5148H10.9358C8.34758 37.5148 6.24905 39.6134 6.24905 42.2016V87.5072H0V92.194C0.00533978 96.5063 3.49907 100 7.81132 100.005H92.1735C96.4858 100 99.9795 96.5063 99.9848 92.194V87.5072H93.7358V42.2016ZM78.1132 3.22516C88.0825 4.00324 96.0021 11.9229 96.781 21.8922H78.1132V3.22516ZM74.9886 3.22516V19.6831L63.3479 8.04315C66.6113 5.22986 70.6924 3.54021 74.9886 3.22211V3.22516ZM52.8263 35.3484C47.9343 25.6407 49.4691 13.9306 56.6976 5.81189L74.0076 23.1204L52.8263 35.3484ZM76.5509 43.7639C69.8594 43.7433 63.6042 40.4372 59.8176 34.9197L76.2931 25.4073L89.747 38.862C86.0786 42.0247 81.3948 43.7647 76.5509 43.7639ZM80.3223 25.0167H96.781C96.4545 29.3099 94.7648 33.3864 91.9576 36.6513L80.3223 25.0167ZM96.8603 90.6318V92.194C96.8603 94.7823 94.7618 96.8808 92.1735 96.8808H7.81132C5.22305 96.8808 3.12453 94.7823 3.12453 92.194V90.6318H40.8858C41.5502 92.503 43.32 93.754 45.3056 93.7563H54.6792C56.6648 93.754 58.4346 92.503 59.099 90.6318H96.8603Z" fill="#4B77A6"/>
<path d="M35.9321 65.6356V81.2582H32.8075V73.4469H20.3094V81.2582H15.6226V46.8884H45.3056V43.7639H12.4981V84.3828H87.4867V48.4507H84.3622V81.2582H79.6754V50.013H67.1773V81.2582H64.0528V57.8243H51.5547V81.2582H48.4302V65.6356H35.9321ZM29.683 81.2582H23.4339V76.5714H29.683V81.2582ZM70.3018 53.1375H76.5509V81.2582H70.3018V53.1375ZM54.6792 60.9488H60.9283V81.2582H54.6792V60.9488ZM45.3056 81.2582H39.0566V68.7601H45.3056V81.2582Z" fill="#4B77A6"/>
<path d="M10.9358 17.6777L20.494 25.64L30.0751 14.4624L39.6516 19.2506L49.7689 2.38763L47.0914 0.778076L38.4616 15.1604L29.2909 10.575L20.1248 21.2691L10.9358 13.6095L0.562195 22.2546L2.56232 24.6545L10.9358 17.6777Z" fill="#4B77A6"/>
</g>
<defs>
<clipPath id="clip0">
<rect width="100" height="100" fill="white"/>
</clipPath>
</defs>
</svg>
