<svg width="100" height="100" viewBox="0 0 100 100" fill="none" xmlns="http://www.w3.org/2000/svg">
<path d="M6.25 9.375H31.25V12.5H6.25V9.375Z" fill="#4B77A6"/>
<path d="M6.25 15.625H31.25V18.75H6.25V15.625Z" fill="#4B77A6"/>
<path d="M6.25 21.875H21.875V25H6.25V21.875Z" fill="#4B77A6"/>
<path d="M21.875 71.875H18.75V65.625H12.5V62.5H21.875V71.875Z" fill="#4B77A6"/>
<path d="M78.125 59.375H59.375V48.4375C59.3666 40.6746 53.0754 34.3834 45.3125 34.375H43.75V50C43.7469 50.676 43.528 51.3329 43.1252 51.8753L37.2658 59.6878C36.6737 60.4721 35.7483 60.9352 34.7656 60.9375H28.125V56.25H0V59.375H25V96.875H0V100H28.125V95.3125H36.7409L46.1159 100H64.0625C67.514 100 70.3125 97.2015 70.3125 93.75V90.4266C73.0705 89.7118 74.9969 87.2238 75 84.375V81.0516C77.758 80.3368 79.6844 77.8488 79.6875 75V71.6782C82.7377 70.8939 84.7282 67.9619 84.3315 64.8376C83.9348 61.7126 81.2744 59.3719 78.125 59.375ZM78.125 68.75H66.4062V71.875H76.5625V75C76.5625 76.7258 75.1633 78.125 73.4375 78.125H61.7188V81.25H71.875V84.375C71.875 86.1008 70.4758 87.5 68.75 87.5H61.7188V90.625H67.1875V93.75C67.1875 95.4758 65.7883 96.875 64.0625 96.875H46.8529L37.4779 92.1875H28.125V64.0625H34.7656C36.7317 64.0579 38.5826 63.1325 39.7659 61.5623L45.6268 53.7498C46.4348 52.6665 46.8719 51.3519 46.875 50V37.6106C52.253 38.3949 56.2431 43.0031 56.25 48.4375V62.5H78.125C79.8508 62.5 81.25 63.8992 81.25 65.625C81.25 67.3508 79.8508 68.75 78.125 68.75Z" fill="#4B77A6"/>
<path d="M21.875 89.0625C21.875 86.4738 19.7762 84.375 17.1875 84.375C14.5988 84.375 12.5 86.4738 12.5 89.0625C12.5 91.6512 14.5988 93.75 17.1875 93.75C19.7762 93.75 21.875 91.6512 21.875 89.0625ZM15.625 89.0625C15.625 88.1996 16.3246 87.5 17.1875 87.5C18.0504 87.5 18.75 88.1996 18.75 89.0625C18.75 89.9254 18.0504 90.625 17.1875 90.625C16.3246 90.625 15.625 89.9254 15.625 89.0625Z" fill="#4B77A6"/>
<path d="M60.9375 0V13.4155L49.353 25H62.5V34.375H100V0H60.9375ZM96.875 31.25H65.625V21.875H56.897L64.0625 14.7095V3.125H96.875V31.25Z" fill="#4B77A6"/>
<path d="M18.75 43.1252L25.75 34.375H37.5V0H0V34.375H11.75L18.75 43.1252ZM3.125 3.125H34.375V31.25H24.25L18.75 38.1248L13.25 31.25H3.125V3.125Z" fill="#4B77A6"/>
<path d="M79.6875 27.1637L88.5597 18.2923C91.1194 15.7326 91.3261 11.6501 89.0381 8.84478C86.75 6.03945 82.7095 5.42071 79.6875 7.41427C76.6655 5.42071 72.625 6.03945 70.3369 8.84478C68.0489 11.6501 68.2556 15.7326 70.8153 18.2923L79.6875 27.1637ZM73.0247 10.5248C74.5621 8.99584 77.0454 8.99584 78.5828 10.5248L79.6875 11.6295L80.7922 10.5248C82.3273 8.9905 84.8152 8.9905 86.3502 10.5248C87.8845 12.0598 87.8845 14.5478 86.3502 16.0828L79.6875 22.7455L73.0247 16.0828C71.4951 14.5462 71.4951 12.0621 73.0247 10.5248Z" fill="#4B77A6"/>
</svg>
