<svg width="100" height="100" viewBox="0 0 100 100" fill="none" xmlns="http://www.w3.org/2000/svg">
<path d="M89.0625 17.1875H71.875V10.9375C71.8681 4.8996 66.9754 0.00686645 60.9375 0H39.0625C33.0246 0.00686645 28.1319 4.8996 28.125 10.9375V17.1875H10.9375C4.8996 17.1944 0.00686645 22.0871 0 28.125V82.8125C0.00686645 88.8504 4.8996 93.7431 10.9375 93.75H12.5V100H31.25V93.75H68.75V100H87.5V93.75H89.0625C95.1004 93.7431 99.9931 88.8504 100 82.8125V28.125C99.9931 22.0871 95.1004 17.1944 89.0625 17.1875ZM71.875 31.25L75 33.5938V50.9155L68.75 57.1655V67.1875H65.625V55.3345L71.875 49.0845V31.25ZM31.25 10.9375C31.2553 6.6246 34.7496 3.13034 39.0625 3.125H60.9375C65.2504 3.13034 68.7447 6.6246 68.75 10.9375V17.1875H65.625V10.9375C65.625 8.34885 63.5262 6.25 60.9375 6.25H39.0625C36.4738 6.25 34.375 8.34885 34.375 10.9375V17.1875H31.25V10.9375ZM62.5 10.9375V17.1875H37.5V10.9375C37.5 10.0746 38.1996 9.375 39.0625 9.375H60.9375C61.8004 9.375 62.5 10.0746 62.5 10.9375ZM3.125 31.25H25.222C26.0086 34.2972 28.9391 36.2846 32.061 35.8879C35.183 35.4912 37.5237 32.8346 37.5237 29.6875C37.5237 26.5404 35.183 23.8838 32.061 23.4871C28.9391 23.0904 26.0086 25.0778 25.222 28.125H3.125C3.13034 23.8121 6.6246 20.3178 10.9375 20.3125H50V25.9155L40.625 35.2905V42.1875H29.0405L25.7812 45.4422H3.125V31.25ZM28.125 29.6875C28.125 27.9617 29.5242 26.5625 31.25 26.5625C32.9758 26.5625 34.375 27.9617 34.375 29.6875C34.375 31.4133 32.9758 32.8125 31.25 32.8125C29.5242 32.8125 28.125 31.4133 28.125 29.6875ZM3.125 48.5672H22.6562L16.5405 54.6875H3.125V48.5672ZM28.125 96.875H15.625V93.75H28.125V96.875ZM84.375 96.875H71.875V93.75H84.375V96.875ZM96.875 82.8125C96.8758 83.3374 96.8231 83.8608 96.7186 84.375H66.2033L58.9066 78.125H96.875V82.8125ZM96.875 75H26.3405C25.5539 71.9528 22.6234 69.9654 19.5015 70.3621C16.3795 70.7588 14.0388 73.4154 14.0388 76.5625C14.0388 79.7096 16.3795 82.3662 19.5015 82.7629C22.6234 83.1596 25.5539 81.1722 26.3405 78.125H54.1092L65.0467 87.5H95.2721C93.8087 89.46 91.5085 90.6181 89.0625 90.625H10.9375C6.6246 90.6197 3.13034 87.1254 3.125 82.8125V64.0625H22.097C22.8836 67.1097 25.8141 69.0971 28.936 68.7004C32.058 68.3037 34.3987 65.6471 34.3987 62.5C34.3987 59.3529 32.058 56.6963 28.936 56.2996C25.8141 55.9029 22.8836 57.8903 22.097 60.9375H3.125V57.8125H17.8345L30.3345 45.3125H51.7845C52.5711 48.3597 55.5016 50.3471 58.6235 49.9504C61.7455 49.5537 64.0862 46.8971 64.0862 43.75C64.0862 40.6029 61.7455 37.9463 58.6235 37.5496C55.5016 37.1529 52.5711 39.1403 51.7845 42.1875H43.75V36.5845L53.125 27.2095V20.3125H68.75V47.7905L62.5 54.0405V67.1875H61.5845L55.3345 60.9375H49.778C48.9914 57.8903 46.0609 55.9029 42.939 56.2996C39.817 56.6963 37.4763 59.3529 37.4763 62.5C37.4763 65.6471 39.817 68.3037 42.939 68.7004C46.0609 69.0971 48.9914 67.1097 49.778 64.0625H54.0405L60.2905 70.3125H96.875V75ZM23.4375 76.5625C23.4375 78.2883 22.0383 79.6875 20.3125 79.6875C18.5867 79.6875 17.1875 78.2883 17.1875 76.5625C17.1875 74.8367 18.5867 73.4375 20.3125 73.4375C22.0383 73.4375 23.4375 74.8367 23.4375 76.5625ZM25 62.5C25 60.7742 26.3992 59.375 28.125 59.375C29.8508 59.375 31.25 60.7742 31.25 62.5C31.25 64.2258 29.8508 65.625 28.125 65.625C26.3992 65.625 25 64.2258 25 62.5ZM54.6875 43.75C54.6875 42.0242 56.0867 40.625 57.8125 40.625C59.5383 40.625 60.9375 42.0242 60.9375 43.75C60.9375 45.4758 59.5383 46.875 57.8125 46.875C56.0867 46.875 54.6875 45.4758 54.6875 43.75ZM46.875 62.5C46.875 64.2258 45.4758 65.625 43.75 65.625C42.0242 65.625 40.625 64.2258 40.625 62.5C40.625 60.7742 42.0242 59.375 43.75 59.375C45.4758 59.375 46.875 60.7742 46.875 62.5ZM96.875 67.1875H71.875V58.4595L78.125 52.2095V32.0312L71.875 27.3438V20.3125H81.25V36.5845L85.9375 41.272V48.6595C82.8903 49.4461 80.9029 52.3766 81.2996 55.4985C81.6963 58.6205 84.3529 60.9612 87.5 60.9612C90.6471 60.9612 93.3037 58.6205 93.7004 55.4985C94.0971 52.3766 92.1097 49.4461 89.0625 48.6595V39.978L84.375 35.2905V20.3125H89.0625C93.3754 20.3178 96.8697 23.8121 96.875 28.125V67.1875ZM87.5 51.5625C89.2258 51.5625 90.625 52.9617 90.625 54.6875C90.625 56.4133 89.2258 57.8125 87.5 57.8125C85.7742 57.8125 84.375 56.4133 84.375 54.6875C84.375 52.9617 85.7742 51.5625 87.5 51.5625Z" fill="#4B77A6"/>
<path d="M12.5 10.9375H21.875V14.0625H12.5V10.9375Z" fill="#4B77A6"/>
<path d="M78.125 10.9375H87.5V14.0625H78.125V10.9375Z" fill="#4B77A6"/>
</svg>
