<svg width="82" height="82" viewBox="0 0 82 82" fill="none" xmlns="http://www.w3.org/2000/svg">
<path d="M54.7195 50.6037C53.8778 50.6037 53.1951 51.2861 53.1951 52.128V62.6463C53.1951 66.8491 49.7759 70.2683 45.5732 70.2683H29.1146C28.273 70.2683 27.5909 70.9502 27.5903 71.7916L27.5881 74.8224L23.9497 71.1841C23.7142 70.6434 23.1752 70.2683 22.5517 70.2683H12.6463C8.4436 70.2683 5.0244 66.8491 5.0244 62.6463V39.1707C5.0244 34.968 8.4436 31.5488 12.6463 31.5488H28.0427C28.8845 31.5488 29.5671 30.8663 29.5671 30.0244C29.5671 29.1825 28.8845 28.5 28.0427 28.5H12.6463C6.76251 28.5 1.97562 33.2869 1.97562 39.1707V62.6463C1.97562 68.5302 6.76251 73.3171 12.6463 73.3171H21.771L28.0319 79.5779C28.3235 79.8695 28.7133 80.0244 29.1101 80.0244C29.3063 80.0244 29.5043 79.9864 29.6925 79.9085C30.2622 79.6729 30.6337 79.1174 30.6342 78.5011L30.6378 73.3171H45.5732C51.457 73.3171 56.2439 68.5302 56.2439 62.6463V52.128C56.2439 51.2861 55.5613 50.6037 54.7195 50.6037Z" fill="#4B77A6" stroke="#4B77A6" stroke-width="0.5"/>
<path d="M57.8681 1.97562H54.0101C41.793 1.97562 31.8537 11.9149 31.8537 24.132C31.8537 36.3491 41.793 46.2883 54.0099 46.2883H57.868C59.7748 46.2883 61.6622 46.046 63.4915 45.5674L69.1907 51.2634C69.4823 51.5547 69.8719 51.7096 70.2686 51.7096C70.4651 51.7096 70.6633 51.6717 70.8518 51.5935C71.4213 51.3575 71.7927 50.8017 71.7927 50.1852V41.3657C74.2056 39.4116 76.2101 36.9431 77.6168 34.1855C79.2145 31.0535 80.0244 27.671 80.0244 24.132C80.0244 11.9149 70.0851 1.97562 57.8681 1.97562ZM69.3511 39.4047C68.9689 39.6927 68.7439 40.1436 68.7439 40.6224V46.5066L65.0136 42.7782C64.7233 42.4883 64.334 42.332 63.9358 42.332C63.7864 42.332 63.6355 42.3541 63.4883 42.3994C61.6738 42.957 59.7829 43.2396 57.8681 43.2396H54.0101C43.4739 43.2396 34.9024 34.668 34.9024 24.132C34.9024 13.596 43.4741 5.0244 54.0101 5.0244H57.8681C68.4041 5.0244 76.9756 13.596 76.9756 24.132C76.9756 30.1886 74.1966 35.7553 69.3511 39.4047Z" fill="#4B77A6" stroke="#4B77A6" stroke-width="0.5"/>
<path d="M62.8038 18.6556C62.5838 15.4643 60.0113 12.8918 56.8198 12.6718C55.0107 12.5476 53.2842 13.1578 51.9627 14.3915C50.6593 15.6081 49.9119 17.3279 49.9119 19.1101C49.9119 19.952 50.5945 20.6345 51.4363 20.6345C52.2781 20.6345 52.9607 19.952 52.9607 19.1101C52.9607 18.156 53.3451 17.2717 54.043 16.6203C54.7402 15.9695 55.6515 15.6474 56.6104 15.7136C58.2915 15.8294 59.6465 17.1845 59.7623 18.8654C59.8794 20.5631 58.7656 22.0634 57.114 22.4329C55.7759 22.7323 54.8415 23.8951 54.8415 25.2605V28.9229C54.8415 29.7648 55.5241 30.4473 56.3659 30.4473C57.2078 30.4473 57.8902 29.7648 57.8901 28.9229V25.3823C60.9617 24.6403 63.0226 21.8296 62.8038 18.6556Z" fill="#4B77A6" stroke="#4B77A6" stroke-width="0.5"/>
<path d="M57.4436 33.875C57.1601 33.5915 56.7668 33.4284 56.3659 33.4284C55.9649 33.4284 55.5716 33.5915 55.2881 33.875C55.0046 34.1585 54.8415 34.5518 54.8415 34.9527C54.8415 35.3552 55.0047 35.7485 55.2881 36.032C55.5716 36.3156 55.9649 36.4771 56.3659 36.4771C56.7668 36.4771 57.1601 36.3156 57.4436 36.032C57.7271 35.747 57.8902 35.3552 57.8902 34.9527C57.8902 34.5518 57.727 34.1585 57.4436 33.875Z" fill="#4B77A6" stroke="#4B77A6" stroke-width="0.5"/>
<path d="M43.8963 49.2317H11.7317C10.8899 49.2317 10.2073 49.9142 10.2073 50.7561C10.2073 51.598 10.8899 52.2805 11.7317 52.2805H43.8963C44.7383 52.2805 45.4207 51.598 45.4207 50.7561C45.4207 49.9142 44.7381 49.2317 43.8963 49.2317Z" fill="#4B77A6" stroke="#4B77A6" stroke-width="0.5"/>
<path d="M44.9739 58.2149C44.6905 57.9314 44.2973 57.7683 43.8963 57.7683C43.4954 57.7683 43.1021 57.9314 42.8186 58.2149C42.5349 58.4985 42.3719 58.8918 42.3719 59.2927C42.3719 59.6936 42.5351 60.0869 42.8186 60.3704C43.1021 60.654 43.4954 60.8171 43.8963 60.8171C44.2973 60.8171 44.6905 60.654 44.9739 60.3704C45.2576 60.0869 45.4207 59.6951 45.4207 59.2927C45.4207 58.8918 45.2575 58.4985 44.9739 58.2149Z" fill="#4B77A6" stroke="#4B77A6" stroke-width="0.5"/>
<path d="M37.9005 57.7683H11.7317C10.8899 57.7683 10.2073 58.4508 10.2073 59.2927C10.2073 60.1346 10.8899 60.8171 11.7317 60.8171H37.9005C38.7424 60.8171 39.4249 60.1346 39.4249 59.2927C39.4249 58.4508 38.7422 57.7683 37.9005 57.7683Z" fill="#4B77A6" stroke="#4B77A6" stroke-width="0.5"/>
<path d="M33.9878 40.6951H11.7317C10.8899 40.6951 10.2073 41.3776 10.2073 42.2195C10.2073 43.0614 10.8899 43.7439 11.7317 43.7439H33.9878C34.8297 43.7439 35.5122 43.0614 35.5122 42.2195C35.5122 41.3776 34.8296 40.6951 33.9878 40.6951Z" fill="#4B77A6" stroke="#4B77A6" stroke-width="0.5"/>
<rect x="1" y="1" width="80" height="80" stroke="white" stroke-width="0.5"/>
</svg>
