<svg width="80" height="80" viewBox="0 0 80 80" fill="none" xmlns="http://www.w3.org/2000/svg">
<g clip-path="url(#clip0)">
<path d="M56.837 43.114H45.9665C42.9914 43.114 40.5721 45.5333 40.5721 48.5084V56.8451C40.5721 59.8202 42.9914 62.2395 45.9665 62.2395H56.837C59.812 62.2395 62.2313 59.8202 62.2313 56.8451V48.5084C62.2313 45.5333 59.812 43.114 56.837 43.114ZM58.3081 56.8451C58.3081 57.6624 57.6379 58.3163 56.837 58.3163H45.9665C45.1492 58.3163 44.4953 57.6461 44.4953 56.8451V48.5084C44.4953 47.691 45.1655 47.0372 45.9665 47.0372H56.837C57.6543 47.0372 58.3081 47.7074 58.3081 48.5084V56.8451Z" fill="#4B77A6"/>
<path d="M80 27.9608C80 27.6175 79.9183 27.2906 79.7385 26.9963L67.8382 6.07275C67.4949 5.46792 66.841 5.07561 66.1381 5.07561H13.8455C13.1426 5.07561 12.4888 5.45158 12.1455 6.07275L0.261545 26.9963C0.0980793 27.2906 0 27.6175 0 27.9608C0 32.6522 2.82795 36.6735 6.86555 38.4552V72.9628C6.86555 74.0417 7.74826 74.9244 8.82714 74.9244H19.6649C19.6812 74.9244 19.6976 74.9244 19.7139 74.9244H34.9162C34.9326 74.9244 34.9489 74.9244 34.9653 74.9244H71.1565C72.2354 74.9244 73.1181 74.0417 73.1181 72.9628V38.7004C73.1181 38.6187 73.1181 38.5533 73.1018 38.4879C77.1557 36.7062 80 32.6686 80 27.9608ZM14.9898 9.01512H64.9939L74.2951 25.378H5.70495L14.9898 9.01512ZM56.935 29.2848C56.3139 32.8157 53.2244 35.4965 49.5137 35.4965C45.803 35.4965 42.7135 32.8157 42.0924 29.2848H56.935ZM37.924 29.2848C37.3028 32.8157 34.2133 35.4965 30.5027 35.4965C26.792 35.4965 23.7025 32.8157 23.065 29.2848H37.924ZM4.05394 29.2848H18.913C18.2918 32.8157 15.1859 35.4965 11.4753 35.4965C7.76461 35.5129 4.67511 32.8157 4.05394 29.2848ZM32.9546 71.0012H21.6755V49.8324C21.6755 48.2959 22.9179 47.0372 24.4708 47.0372H30.1757C31.7123 47.0372 32.971 48.2795 32.971 49.8324V71.0012H32.9546ZM69.1949 71.0012H36.8778V49.8324C36.8778 46.1381 33.87 43.114 30.1594 43.114H24.4544C20.7601 43.114 17.736 46.1218 17.736 49.8324V71.0176H10.7887V39.4197C11.0176 39.436 11.2464 39.436 11.4753 39.436C15.4311 39.436 18.9293 37.4254 20.989 34.3686C23.0486 37.4254 26.5468 39.436 30.5027 39.436C34.4585 39.436 37.9403 37.4254 40.0163 34.3686C42.076 37.4254 45.5742 39.436 49.5137 39.436C53.4696 39.436 56.9514 37.4254 59.011 34.3686C61.0707 37.4254 64.5689 39.436 68.5247 39.436C68.7536 39.436 68.9661 39.4197 69.1949 39.4197V71.0012ZM68.5247 35.5129C64.8141 35.5129 61.7246 32.832 61.1034 29.3012H75.9624C75.3249 32.8157 72.2354 35.5129 68.5247 35.5129Z" fill="#4B77A6"/>
</g>
<defs>
<clipPath id="clip0">
<rect width="80" height="80" fill="white"/>
</clipPath>
</defs>
</svg>
