<svg width="14" fill="none" xmlns="http://www.w3.org/2000/svg" height="19" viewBox="0 -2 14 15">
                            <path d="M0.333008 4.33333C0.333008 2.30667 1.97301 0.666667 3.99967 0.666667H10.9997C12.473 0.666667 13.6663 1.86 13.6663 3.33333C13.6663 4.80667 12.473 6 10.9997 6H5.33301C4.41301 6 3.66634 5.25333 3.66634 4.33333C3.66634 3.41333 4.41301 2.66667 5.33301 2.66667H10.333V4H5.27301C4.90634 4 4.90634 4.66667 5.27301 4.66667H10.9997C11.733 4.66667 12.333 4.06667 12.333 3.33333C12.333 2.6 11.733 2 10.9997 2H3.99967C2.71301 2 1.66634 3.04667 1.66634 4.33333C1.66634 5.62 2.71301 6.66667 3.99967 6.66667H10.333V8H3.99967C1.97301 8 0.333008 6.36 0.333008 4.33333Z" fill="#4B77A6"></path>
                        </svg>