<svg width="14" fill="none" xmlns="http://www.w3.org/2000/svg" viewBox="0 4 14 6" height="20">
                            <path d="M11.7597 7.62667C11.7864 7.42667 11.7997 7.22 11.7997 7C11.7997 6.78667 11.7864 6.57333 11.7531 6.37333L13.1064 5.32C13.2264 5.22667 13.2597 5.04667 13.1864 4.91333L11.9064 2.7C11.8264 2.55333 11.6597 2.50667 11.5131 2.55333L9.91975 3.19333C9.58641 2.94 9.23308 2.72667 8.83975 2.56667L8.59975 0.873333C8.57308 0.713333 8.43975 0.6 8.27975 0.6H5.71975C5.55975 0.6 5.43308 0.713333 5.40641 0.873333L5.16641 2.56667C4.77308 2.72667 4.41308 2.94667 4.08641 3.19333L2.49308 2.55333C2.34641 2.5 2.17975 2.55333 2.09975 2.7L0.826414 4.91333C0.746414 5.05333 0.773081 5.22667 0.906414 5.32L2.25975 6.37333C2.22641 6.57333 2.19975 6.79333 2.19975 7C2.19975 7.20667 2.21308 7.42667 2.24641 7.62667L0.893081 8.68C0.773081 8.77333 0.739748 8.95333 0.813081 9.08667L2.09308 11.3C2.17308 11.4467 2.33975 11.4933 2.48641 11.4467L4.07975 10.8067C4.41308 11.06 4.76641 11.2733 5.15975 11.4333L5.39975 13.1267C5.43308 13.2867 5.55975 13.4 5.71975 13.4H8.27975C8.43975 13.4 8.57308 13.2867 8.59308 13.1267L8.83308 11.4333C9.22641 11.2733 9.58642 11.06 9.91308 10.8067L11.5064 11.4467C11.6531 11.5 11.8197 11.4467 11.8997 11.3L13.1797 9.08667C13.2597 8.94 13.2264 8.77333 13.0997 8.68L11.7597 7.62667ZM6.99975 9.4C5.67975 9.4 4.59975 8.32 4.59975 7C4.59975 5.68 5.67975 4.6 6.99975 4.6C8.31975 4.6 9.39975 5.68 9.39975 7C9.39975 8.32 8.31975 9.4 6.99975 9.4Z" fill="#4B77A6"></path>
                        </svg>