<svg width="80" height="80" viewBox="0 0 80 80" fill="none" xmlns="http://www.w3.org/2000/svg">
<g clip-path="url(#clip0)">
<path d="M79.9572 50.0661C79.7579 45.4825 78.9607 40.4007 77.765 35.6178C76.5693 31.0342 75.0747 26.7495 73.2811 23.4613C66.306 11.2052 58.7331 13.0984 49.6656 15.4898C46.7759 16.1873 43.687 16.9845 40.4984 17.2834H39.5019C36.3133 16.9845 33.2244 16.1873 30.3347 15.4898C21.2672 13.198 13.6943 11.2052 6.71923 23.5609C4.92565 26.8492 3.33136 31.1338 2.23528 35.7174C1.03956 40.5003 0.242408 45.5821 0.0431215 50.1657C-0.156165 55.2475 0.342052 58.9344 1.43813 61.5251C2.53421 63.9165 4.1285 65.4112 6.22102 66.009C8.11424 66.5073 10.3064 66.308 12.5982 65.3115C16.4843 63.7172 20.9683 60.3294 25.3526 56.244C28.4415 53.2547 34.2208 51.76 40.0002 51.76C45.7795 51.76 51.5588 53.2547 54.6477 56.244C59.0321 60.3294 63.516 63.7172 67.4021 65.3115C69.6939 66.2083 71.8861 66.5073 73.7793 66.009C75.7722 65.4112 77.4661 64.0162 78.5622 61.4254C79.6582 58.9344 80.1565 55.2475 79.9572 50.0661ZM75.1743 60.0304C74.5764 61.4254 73.7793 62.2226 72.7829 62.5215C71.6868 62.8204 70.2918 62.6212 68.6975 62.0233C65.21 60.6283 61.1246 57.5393 57.1388 53.7529C53.3524 49.9664 46.6763 48.0732 40.0002 48.0732C33.324 48.0732 26.6479 49.9664 22.7618 53.5536C18.6765 57.3401 14.5911 60.5286 11.2032 61.824C9.60889 62.4219 8.21389 62.7208 7.11781 62.3222C6.12137 62.0233 5.32422 61.2262 4.72636 59.8311C3.92922 57.9379 3.53064 54.849 3.72993 50.2654C3.92922 45.9807 4.62672 41.0982 5.82244 36.5146C6.91852 32.2299 8.31353 28.2442 10.0075 25.2549C15.4879 15.3902 21.865 16.9845 29.4379 18.9773C32.5269 19.7745 35.7155 20.5716 39.203 20.8706C39.3027 20.8706 39.3027 20.8706 39.4023 20.8706H40.4984C40.598 20.8706 40.598 20.8706 40.6977 20.8706C44.2848 20.5716 47.4734 19.7745 50.5624 18.9773C58.1353 17.0841 64.5124 15.3902 69.9928 25.2549C71.6868 28.2442 73.0818 32.1303 74.1779 36.5146C75.2739 41.0982 76.0711 45.8811 76.2704 50.2654C76.4697 54.849 76.0711 57.9379 75.1743 60.0304Z" fill="#4B77A6"/>
<path d="M30.833 30.6356C29.8365 29.7388 28.6408 29.0413 27.2458 28.9417C27.1461 27.6463 26.5483 26.351 25.6515 25.4542L25.5518 25.3545C24.4558 24.2584 23.0608 23.6606 21.4665 23.6606C19.8722 23.6606 18.3775 24.3581 17.3811 25.3545C16.4843 26.2513 15.7868 27.5467 15.6871 28.9417C14.2921 29.0413 13.0964 29.6392 12.1 30.536L12.0003 30.6356C10.9043 31.7317 10.3064 33.1267 10.3064 34.721C10.3064 36.3153 11.0039 37.81 12.0003 38.8064C12.9968 39.8028 14.1925 40.4007 15.6871 40.5003C15.7868 41.8953 16.3846 43.1907 17.3811 44.0875C18.4772 45.1836 19.8722 45.7814 21.4665 45.7814C23.0608 45.7814 24.5554 45.0839 25.5518 44.0875C26.4486 43.0911 27.1461 41.8953 27.2458 40.5003C28.6408 40.4007 29.9362 39.8028 30.833 38.8064C31.929 37.7103 32.5269 36.3153 32.5269 34.721C32.5269 33.1267 31.8294 31.6321 30.833 30.6356ZM28.3419 36.2157C27.9433 36.6142 27.4451 36.8135 26.8472 36.8135H25.4522C24.4558 36.8135 23.559 37.6107 23.559 38.7067V40.0021C23.559 40.6 23.3597 41.0982 22.9611 41.4968C22.5625 41.8953 22.0643 42.0946 21.4665 42.0946C20.8686 42.0946 20.3704 41.8953 19.9718 41.4968C19.5732 41.0982 19.374 40.6 19.374 40.0021V38.6071C19.374 37.6107 18.5768 36.7139 17.4807 36.7139H16.0857C15.4879 36.7139 14.9896 36.5146 14.5911 36.116C14.2921 35.8171 13.9932 35.3189 13.9932 34.721C13.9932 34.1231 14.1925 33.6249 14.5911 33.2264C14.5911 33.2264 14.5911 33.2264 14.6907 33.1267C15.0893 32.8278 15.5875 32.6285 16.0857 32.6285H17.4807C18.4772 32.6285 19.374 31.8313 19.374 30.7353V29.3403C19.374 28.7424 19.5732 28.2442 19.9718 27.8456C20.3704 27.447 20.8686 27.2477 21.4665 27.2477C22.0643 27.2477 22.5625 27.447 22.9611 27.8456C22.9611 27.8456 22.9611 27.8456 23.0608 27.9453C23.3597 28.3438 23.559 28.842 23.559 29.3403V30.7353C23.559 31.7317 24.3561 32.6285 25.4522 32.6285H26.8472C27.4451 32.6285 27.9433 32.8278 28.3419 33.2264C28.7404 33.6249 28.9397 34.1231 28.9397 34.721C28.9397 35.3189 28.7404 35.8171 28.3419 36.2157Z" fill="#4B77A6"/>
<path d="M57.3381 31.1338C59.2642 31.1338 60.8256 29.5724 60.8256 27.6463C60.8256 25.7202 59.2642 24.1588 57.3381 24.1588C55.412 24.1588 53.8506 25.7202 53.8506 27.6463C53.8506 29.5724 55.412 31.1338 57.3381 31.1338Z" fill="#4B77A6"/>
<path d="M57.3381 45.2832C59.2642 45.2832 60.8256 43.7218 60.8256 41.7957C60.8256 39.8696 59.2642 38.3082 57.3381 38.3082C55.412 38.3082 53.8506 39.8696 53.8506 41.7957C53.8506 43.7218 55.412 45.2832 57.3381 45.2832Z" fill="#4B77A6"/>
<path d="M50.2634 38.2085C52.1895 38.2085 53.7509 36.6471 53.7509 34.721C53.7509 32.7949 52.1895 31.2335 50.2634 31.2335C48.3373 31.2335 46.7759 32.7949 46.7759 34.721C46.7759 36.6471 48.3373 38.2085 50.2634 38.2085Z" fill="#4B77A6"/>
<path d="M64.4128 38.2085C66.3389 38.2085 67.9003 36.6471 67.9003 34.721C67.9003 32.7949 66.3389 31.2335 64.4128 31.2335C62.4866 31.2335 60.9252 32.7949 60.9252 34.721C60.9252 36.6471 62.4866 38.2085 64.4128 38.2085Z" fill="#4B77A6"/>
</g>
<defs>
<clipPath id="clip0">
<rect width="80" height="80" fill="white"/>
</clipPath>
</defs>
</svg>
