<svg width="62" height="62" viewBox="0 0 62 62" fill="none" xmlns="http://www.w3.org/2000/svg">
<path d="M33.5834 18.0833H28.4167V28.4167H18.0834V33.5833H28.4167V43.9167H33.5834V33.5833H43.9167V28.4167H33.5834V18.0833ZM31.0001 5.16666C16.7401 5.16666 5.16675 16.74 5.16675 31C5.16675 45.26 16.7401 56.8333 31.0001 56.8333C45.2601 56.8333 56.8334 45.26 56.8334 31C56.8334 16.74 45.2601 5.16666 31.0001 5.16666ZM31.0001 51.6667C19.6076 51.6667 10.3334 42.3925 10.3334 31C10.3334 19.6075 19.6076 10.3333 31.0001 10.3333C42.3926 10.3333 51.6667 19.6075 51.6667 31C51.6667 42.3925 42.3926 51.6667 31.0001 51.6667Z" fill="#4B77A6"/>
</svg>
