<svg width="14" fill="none" xmlns="http://www.w3.org/2000/svg" height="19" viewBox="0 0 14 15">
                            <path d="M6.99301 0.333333C3.31301 0.333333 0.333008 3.32 0.333008 7C0.333008 10.68 3.31301 13.6667 6.99301 13.6667C10.6797 13.6667 13.6663 10.68 13.6663 7C13.6663 3.32 10.6797 0.333333 6.99301 0.333333ZM6.99967 12.3333C4.05301 12.3333 1.66634 9.94667 1.66634 7C1.66634 4.05333 4.05301 1.66667 6.99967 1.66667C9.94634 1.66667 12.333 4.05333 12.333 7C12.333 9.94667 9.94634 12.3333 6.99967 12.3333ZM9.33301 6.33333C9.88634 6.33333 10.333 5.88667 10.333 5.33333C10.333 4.78 9.88634 4.33333 9.33301 4.33333C8.77967 4.33333 8.33301 4.78 8.33301 5.33333C8.33301 5.88667 8.77967 6.33333 9.33301 6.33333ZM4.66634 6.33333C5.21967 6.33333 5.66634 5.88667 5.66634 5.33333C5.66634 4.78 5.21967 4.33333 4.66634 4.33333C4.11301 4.33333 3.66634 4.78 3.66634 5.33333C3.66634 5.88667 4.11301 6.33333 4.66634 6.33333ZM6.99967 10.6667C8.55301 10.6667 9.87301 9.69333 10.4063 8.33333H3.59301C4.12634 9.69333 5.44634 10.6667 6.99967 10.6667Z" fill="#4B77A6"></path>
                        </svg>