<svg width="180" height="180" viewBox="0 0 180 180" fill="none" xmlns="http://www.w3.org/2000/svg">
<g clip-path="url(#clip0)">
<path d="M40 126.176L40.0217 114.794C43.3313 112.135 45.452 108.056 45.452 103.48V96.0806C45.452 88.0672 38.9558 81.571 30.9424 81.571C22.929 81.571 16.4328 88.0672 16.4328 96.0806V103.48C16.4328 108.066 18.5625 112.152 21.8844 114.811V126.176L1.4655 143.762C0.834896 144.305 0.472229 145.096 0.472229 145.928V155.352C0.472229 156.592 1.361 157.656 2.58242 157.875C10.978 159.386 19.4643 160.214 27.9597 160.373L62.0161 158.921V144.616L40 126.176Z" fill="#ECEAEC"/>
<path d="M10.189 156.99V147.566C10.189 146.734 10.5517 145.942 11.1823 145.4L29.5691 129.565C30.8592 128.453 31.6012 126.835 31.6012 125.132V119.067C31.6012 117.567 31.0668 116.102 30.0439 115.005C27.6285 112.414 26.1493 108.94 26.1493 105.118V97.7186C26.1493 90.5893 31.2924 84.6655 38.0699 83.444C35.9641 82.2537 33.5335 81.571 30.942 81.571C22.9287 81.571 16.4325 88.0672 16.4325 96.0806V103.48C16.4325 108.066 18.5622 112.152 21.884 114.811V126.176L1.4655 143.761C0.834896 144.304 0.472229 145.095 0.472229 145.927V155.765C0.472229 156.93 1.41704 157.875 2.58242 157.875C5.53655 158.407 8.50225 158.849 11.4752 159.212C10.6985 158.765 10.189 157.929 10.189 156.99Z" fill="#DAD8DB"/>
<path d="M142.301 46.1111L146.683 54.6033C147.545 56.273 149.927 56.2875 150.809 54.6286L155.338 46.1111H156.761C169.429 46.1111 179.698 35.8422 179.698 23.1749C179.698 10.5076 169.429 0.238281 156.761 0.238281H22.9366C10.2689 0.238281 0 10.5072 0 23.1749C0 35.8422 10.2689 46.1111 22.9366 46.1111H24.3598L28.889 54.6286C29.7712 56.2875 32.1533 56.2727 33.015 54.6033L37.3974 46.1111H142.301Z" fill="#ABC6E2"/>
<path d="M57.6923 45.8421H56.2691C43.6018 45.8421 33.3325 35.5732 33.3325 22.9059C33.3325 11.435 41.753 1.93193 52.7494 0.238281H22.9366C10.2689 0.238281 0 10.5072 0 23.1749C0 35.8422 10.2689 46.1111 22.9366 46.1111H24.3598L28.889 54.6286C29.7712 56.2875 32.1533 56.2727 33.015 54.6033L37.3974 46.1111H57.8358L57.6923 45.8421Z" fill="#9CB9D7"/>
<path d="M177.19 140.582L157.984 124.474L158.005 113.092C161.315 110.433 163.436 106.354 163.436 101.778V94.379C163.436 86.3656 156.939 79.8694 148.926 79.8694C140.913 79.8694 134.416 86.3656 134.416 94.379V101.778C134.416 106.364 136.546 110.451 139.868 113.109V124.474L119.449 142.06C118.818 142.603 118.456 143.394 118.456 144.226V154.063C118.456 155.229 119.401 156.173 120.566 156.173C128.962 157.684 137.448 158.512 145.943 158.671L175.096 157.428C177.837 157.312 180 155.055 180 152.311V146.565C180 144.252 178.97 142.059 177.19 140.582Z" fill="#ECEAEC"/>
<path d="M130.362 157.295C129.197 157.295 128.252 156.35 128.252 155.185V145.347C128.252 144.515 128.615 143.724 129.245 143.181L147.361 127.58C148.823 126.32 149.664 124.486 149.664 122.556V117.061C149.664 115.425 149.062 113.843 147.963 112.631C145.633 110.057 144.213 106.645 144.213 102.9V95.5007C144.213 88.639 148.983 82.8931 155.383 81.382C153.439 80.4151 151.244 79.8699 148.926 79.8699C140.913 79.8699 134.416 86.3661 134.416 94.3795V101.779C134.416 106.365 136.546 110.451 139.868 113.11V124.475L119.449 142.06C118.818 142.603 118.456 143.394 118.456 144.226V154.064C118.456 155.229 119.401 156.174 120.566 156.174C125.548 157.07 130.562 157.72 135.591 158.139C133.845 157.884 132.101 157.608 130.362 157.295Z" fill="#DAD8DB"/>
<path d="M140.695 164.047V176.761C140.695 178.418 139.351 179.762 137.694 179.762H41.6424C39.9852 179.762 38.6416 178.418 38.6416 176.761V164.047C38.6416 154.935 42.8504 146.337 50.0459 140.751L76.1485 120.469L78.7226 118.03L100.074 117.388L103.188 120.469L129.29 140.751C136.486 146.337 140.695 154.935 140.695 164.047Z" fill="#5F99D7"/>
<path d="M107.019 123.446L103.188 120.469L100.074 117.388L93.545 117.584L78.7226 118.029L76.1485 120.469L50.0459 140.75C42.8504 146.336 38.6416 154.935 38.6416 164.047V176.76C38.6416 178.417 39.9852 179.761 41.6424 179.761H54.4142V169.839C54.4142 160.727 58.623 152.129 65.8185 146.542L70.1535 143.174C74.0553 140.142 79.1775 139.036 83.9243 140.408C85.7485 140.936 87.6758 141.218 89.6681 141.218C99.3433 141.218 107.492 134.562 109.777 125.589L107.019 123.446Z" fill="#4B77A6"/>
<path d="M103.186 120.469C103.186 127.935 97.134 133.987 89.6681 133.987C82.2021 133.987 76.15 127.935 76.15 120.469V90.0164H103.187V120.469H103.186Z" fill="#FFE5C2"/>
<path d="M118.154 66.3926V59.8574C118.154 50.0082 110.169 42.0241 100.32 42.0241H75.677L73.3336 37.5412C72.8375 36.5921 71.6269 36.2844 70.7378 36.8813C65.2866 40.5405 62.0164 46.6748 62.0164 53.24V66.3926L68.1055 83.2091H111.592L118.154 66.3926Z" fill="#4B77A6"/>
<path d="M76.1499 68.5723V55.4198C76.1499 50.3952 78.0703 45.6278 81.4127 42.0246H75.6773L73.3339 37.5417C72.8378 36.5926 71.6272 36.2849 70.7381 36.8818C65.2869 40.541 62.0168 46.6753 62.0168 53.2405V66.3931L68.1058 83.2096H81.45L76.1499 68.5723Z" fill="#3C6591"/>
<path d="M90.085 119.895C94.7122 119.895 99.1332 118.999 103.186 117.373V90.0168H85.6596H84.0975H76.1492V120.469C76.1492 127.935 82.2014 133.987 89.6673 133.987C91.3411 133.987 92.9516 133.678 94.4312 133.122C91.4073 131.985 88.8896 127.481 87.3424 123.982C86.4847 122.043 87.9191 119.893 90.0394 119.895H90.085Z" fill="#FED2A4"/>
<path d="M62.0164 66.3923V82.9875L66.1052 83.8394L67.8914 97.0133L88.0992 109.471L96.584 110.411L103.078 109.473C112.037 104.785 118.154 95.4068 118.154 84.5947V66.3923C99.3371 62.9508 80.6234 62.9121 62.0164 66.3923Z" fill="#FFE5C2"/>
<path d="M76.1499 81.4784V64.4265C71.432 64.8586 66.7209 65.5127 62.0168 66.3924V84.5948C62.0168 100.097 74.5835 112.663 90.0853 112.663C94.7417 112.663 99.2333 111.477 103.099 109.471C88.1653 108.83 76.1499 96.5701 76.1499 81.4784Z" fill="#FED2A4"/>
<path d="M61.7792 179.761V165.775C61.7792 164.278 60.565 163.063 59.0673 163.063C57.5697 163.063 56.3555 164.278 56.3555 165.775V179.761H61.7792Z" fill="#4B77A6"/>
<path d="M122.981 179.761V165.775C122.981 164.278 121.766 163.063 120.269 163.063C118.771 163.063 117.557 164.278 117.557 165.775V179.761H122.981Z" fill="#4B77A6"/>
<path d="M43.1201 27.7823C46.483 27.7823 49.2092 25.0562 49.2092 21.6933C49.2092 18.3304 46.483 15.6042 43.1201 15.6042C39.7572 15.6042 37.0311 18.3304 37.0311 21.6933C37.0311 25.0562 39.7572 27.7823 43.1201 27.7823Z" fill="#4B77A6"/>
<path d="M74.1945 27.7823C77.5574 27.7823 80.2836 25.0562 80.2836 21.6933C80.2836 18.3304 77.5574 15.6042 74.1945 15.6042C70.8316 15.6042 68.1055 18.3304 68.1055 21.6933C68.1055 25.0562 70.8316 27.7823 74.1945 27.7823Z" fill="#4B77A6"/>
<path d="M136.578 27.7823C139.94 27.7823 142.667 25.0562 142.667 21.6933C142.667 18.3304 139.94 15.6042 136.578 15.6042C133.215 15.6042 130.489 18.3304 130.489 21.6933C130.489 25.0562 133.215 27.7823 136.578 27.7823Z" fill="#4B77A6"/>
<path d="M105.503 27.7823C108.866 27.7823 111.592 25.0562 111.592 21.6933C111.592 18.3304 108.866 15.6042 105.503 15.6042C102.14 15.6042 99.4141 18.3304 99.4141 21.6933C99.4141 25.0562 102.14 27.7823 105.503 27.7823Z" fill="#4B77A6"/>
</g>
<defs>
<clipPath id="clip0">
<rect width="180" height="180" fill="white"/>
</clipPath>
</defs>
</svg>
