<svg width="180" height="180" viewBox="0 0 180 180" fill="none" xmlns="http://www.w3.org/2000/svg">
<path d="M64.6875 22.5C63.1329 22.5 61.875 21.2421 61.875 19.6875V2.8125C61.875 1.25793 63.1329 0 64.6875 0C66.2421 0 67.5 1.25793 67.5 2.8125V19.6875C67.5 21.2421 66.2421 22.5 64.6875 22.5Z" fill="#DAD8DB"/>
<path d="M115.312 22.5C113.758 22.5 112.5 21.2421 112.5 19.6875V2.8125C112.5 1.25793 113.758 0 115.312 0C116.867 0 118.125 1.25793 118.125 2.8125V19.6875C118.125 21.2421 116.867 22.5 115.312 22.5Z" fill="#DAD8DB"/>
<path d="M168.75 154.688H11.25C6.59042 154.688 2.8125 150.91 2.8125 146.25V39.375C2.8125 34.7154 6.59042 30.9375 11.25 30.9375H168.75C173.41 30.9375 177.188 34.7154 177.188 39.375V146.25C177.188 150.91 173.41 154.688 168.75 154.688Z" fill="#D1D9E0"/>
<path d="M168.75 143.438H11.25C9.69681 143.438 8.4375 142.178 8.4375 140.625V39.375C8.4375 37.8218 9.69681 36.5625 11.25 36.5625H168.75C170.303 36.5625 171.562 37.8218 171.562 39.375V140.625C171.562 142.178 170.303 143.438 168.75 143.438Z" fill="white"/>
<path d="M75.9375 78.75H104.062V101.25H75.9375V78.75Z" fill="#DAD8DB"/>
<path d="M75.9375 78.75H104.062V90H75.9375V78.75Z" fill="#C8C5C9"/>
<path d="M109.688 95.625H70.3125C56.3324 95.625 45 106.957 45 120.938V143.438H135V120.938C135 106.957 123.668 95.625 109.688 95.625Z" fill="#ECEAEC"/>
<g clip-path="url(#clip0)">
<path d="M101.873 124.52C101.844 124.457 101.817 124.405 101.791 124.364C101.375 123.614 100.579 122.693 99.4047 121.602L99.3799 121.577L99.3675 121.565L99.3549 121.552H99.3423C98.8093 121.044 98.4717 120.702 98.3303 120.527C98.0716 120.194 98.0137 119.857 98.1551 119.515C98.2549 119.257 98.6301 118.711 99.2797 117.878C99.6214 117.437 99.892 117.083 100.092 116.816C101.533 114.9 102.158 113.676 101.966 113.142L101.892 113.018C101.842 112.943 101.713 112.874 101.505 112.812C101.296 112.749 101.03 112.739 100.705 112.78L97.106 112.805C97.0477 112.785 96.9645 112.787 96.856 112.812C96.7477 112.837 96.6935 112.849 96.6935 112.849L96.6309 112.88L96.5812 112.918C96.5395 112.943 96.4937 112.987 96.4436 113.049C96.3939 113.111 96.3523 113.184 96.319 113.268C95.9272 114.276 95.4817 115.213 94.9818 116.079C94.6735 116.596 94.3904 117.044 94.1319 117.423C93.8737 117.802 93.6571 118.081 93.4823 118.26C93.3073 118.439 93.1493 118.582 93.0074 118.691C92.8657 118.799 92.7575 118.845 92.6827 118.828C92.6076 118.812 92.5369 118.795 92.47 118.778C92.3534 118.703 92.2597 118.601 92.189 118.472C92.118 118.343 92.0702 118.18 92.0452 117.985C92.0204 117.789 92.0057 117.62 92.0015 117.479C91.9976 117.337 91.9994 117.137 92.0078 116.879C92.0165 116.62 92.0204 116.446 92.0204 116.354C92.0204 116.037 92.0265 115.694 92.0389 115.323C92.0515 114.952 92.0617 114.659 92.0703 114.442C92.0788 114.226 92.0827 113.996 92.0827 113.755C92.0827 113.513 92.068 113.324 92.0389 113.186C92.0102 113.049 91.9661 112.916 91.9081 112.786C91.8496 112.657 91.7641 112.557 91.6519 112.486C91.5395 112.416 91.3997 112.359 91.2333 112.318C90.7917 112.218 90.2295 112.164 89.5462 112.155C87.9968 112.139 87.0013 112.239 86.5597 112.455C86.3848 112.547 86.2265 112.672 86.085 112.83C85.935 113.013 85.914 113.113 86.0223 113.13C86.5222 113.205 86.8761 113.384 87.0844 113.667L87.1595 113.817C87.2179 113.926 87.2762 114.117 87.3345 114.392C87.3928 114.667 87.4304 114.971 87.4469 115.304C87.4885 115.912 87.4885 116.433 87.4469 116.866C87.4052 117.299 87.3658 117.637 87.3282 117.878C87.2906 118.12 87.2344 118.316 87.1595 118.466C87.0844 118.615 87.0345 118.707 87.0094 118.74C86.9845 118.774 86.9636 118.795 86.9471 118.803C86.8388 118.844 86.7262 118.865 86.6096 118.865C86.4929 118.865 86.3514 118.807 86.1848 118.69C86.0183 118.574 85.8454 118.413 85.6663 118.209C85.4871 118.005 85.2851 117.72 85.0601 117.353C84.8353 116.987 84.602 116.554 84.3604 116.054L84.1605 115.691C84.0356 115.458 83.8649 115.119 83.6483 114.673C83.4315 114.227 83.24 113.796 83.0734 113.38C83.0069 113.205 82.9069 113.071 82.7736 112.98L82.711 112.942C82.6695 112.909 82.6027 112.874 82.5112 112.836C82.4195 112.798 82.3238 112.771 82.2237 112.755L78.7999 112.78C78.45 112.78 78.2126 112.859 78.0876 113.017L78.0376 113.092C78.0126 113.134 78 113.2 78 113.292C78 113.384 78.025 113.496 78.075 113.629C78.5748 114.804 79.1184 115.937 79.7056 117.028C80.2929 118.12 80.8032 118.999 81.2363 119.665C81.6695 120.331 82.111 120.96 82.5609 121.552C83.0108 122.143 83.3085 122.522 83.4542 122.689C83.6001 122.856 83.7147 122.98 83.798 123.064L84.1104 123.363C84.3104 123.563 84.604 123.803 84.9913 124.082C85.3788 124.361 85.8078 124.636 86.2784 124.907C86.7492 125.177 87.2969 125.398 87.9217 125.569C88.5465 125.74 89.1546 125.808 89.7461 125.775H91.1832C91.4746 125.75 91.6954 125.659 91.8455 125.5L91.8952 125.438C91.9286 125.388 91.9599 125.311 91.9888 125.207C92.0181 125.103 92.0326 124.988 92.0326 124.863C92.0241 124.505 92.0513 124.182 92.1136 123.895C92.1759 123.608 92.2469 123.391 92.3263 123.245C92.4057 123.099 92.4952 122.976 92.5949 122.877C92.6947 122.777 92.7659 122.716 92.8077 122.695C92.8491 122.674 92.8823 122.66 92.9073 122.652C93.1072 122.585 93.3425 122.65 93.6135 122.846C93.8843 123.041 94.1383 123.283 94.3758 123.57C94.6133 123.858 94.8985 124.181 95.2317 124.539C95.5651 124.897 95.8566 125.163 96.1064 125.338L96.3562 125.488C96.523 125.588 96.7396 125.68 97.0063 125.763C97.2724 125.847 97.5056 125.867 97.7058 125.826L100.905 125.776C101.221 125.776 101.467 125.724 101.642 125.62C101.817 125.515 101.921 125.401 101.954 125.276C101.988 125.151 101.99 125.009 101.961 124.851C101.931 124.693 101.902 124.582 101.873 124.52Z" fill="#4B77A6"/>
</g>
<path d="M115.312 154.688H64.6875L59.0625 177.188H120.938L115.312 154.688Z" fill="#D1D9E0"/>
<path d="M126.562 180H53.4375C51.8829 180 50.625 178.742 50.625 177.188C50.625 175.633 51.8829 174.375 53.4375 174.375H126.562C128.117 174.375 129.375 175.633 129.375 177.188C129.375 178.742 128.117 180 126.562 180Z" fill="#C0CBD4"/>
<path d="M115.312 84.375H64.6875C46.0478 84.375 30.9375 69.2647 30.9375 50.625C30.9375 31.9853 46.0478 16.875 64.6875 16.875H115.312C133.952 16.875 149.062 31.9853 149.062 50.625C149.062 69.2647 133.952 84.375 115.312 84.375Z" fill="#ECEAEC"/>
<path d="M109.688 64.6875H70.3125C62.5465 64.6875 56.25 58.391 56.25 50.625C56.25 42.859 62.5465 36.5625 70.3125 36.5625H109.688C117.453 36.5625 123.75 42.859 123.75 50.625C123.75 58.391 117.453 64.6875 109.688 64.6875Z" fill="#4B77A6"/>
<path d="M109.688 59.0625H70.3125C65.6529 59.0625 61.875 55.2846 61.875 50.625C61.875 45.9654 65.6529 42.1875 70.3125 42.1875H109.688C114.347 42.1875 118.125 45.9654 118.125 50.625C118.125 55.2846 114.347 59.0625 109.688 59.0625Z" fill="#7E9FC2"/>
<path d="M70.3125 54.8438C68.7579 54.8438 67.5 53.5858 67.5 52.0312V49.2188C67.5 47.6642 68.7579 46.4062 70.3125 46.4062C71.8671 46.4062 73.125 47.6642 73.125 49.2188V52.0312C73.125 53.5858 71.8671 54.8438 70.3125 54.8438Z" fill="white"/>
<path d="M109.688 54.8438C108.133 54.8438 106.875 53.5858 106.875 52.0312V49.2188C106.875 47.6642 108.133 46.4062 109.688 46.4062C111.242 46.4062 112.5 47.6642 112.5 49.2188V52.0312C112.5 53.5858 111.242 54.8438 109.688 54.8438Z" fill="white"/>
<path d="M82.0157 61.8942C80.1549 61.8955 78.739 63.6932 79.2993 65.4675C80.2236 68.394 82.2753 70.8933 85.1592 72.1115C92.0394 75.0187 98.6929 71.3204 100.664 65.4688C101.261 63.6959 99.8232 61.8763 97.9527 61.8777L82.0157 61.8942Z" fill="white"/>
<path d="M16.875 149.062C12.2154 149.062 8.4375 145.285 8.4375 140.625V31.4167C5.16769 32.5786 2.8125 35.7069 2.8125 39.375V146.25C2.8125 150.91 6.59042 154.687 11.25 154.687H168.75C172.418 154.687 175.545 152.332 176.708 149.062H16.875Z" fill="#C0CBD5"/>
<path d="M116.719 160.312L115.312 154.688H64.6875L63.2812 160.312H116.719Z" fill="#B6C0C8"/>
<path d="M70.3125 78.7499C51.6728 78.7499 36.5625 63.6396 36.5625 44.9999C36.5625 37.1145 39.2638 29.8622 43.7956 24.1177C35.9596 30.2975 30.9375 39.8707 30.9375 50.6249C30.9375 69.2646 46.0478 84.3749 64.6875 84.3749H115.313C122.206 84.3749 128.632 82.2985 133.974 78.7499H70.3125Z" fill="#DAD8DB"/>
<path d="M67.5 2.8125C67.5 4.36569 66.2407 5.625 64.6875 5.625C63.1343 5.625 61.875 4.36569 61.875 2.8125C61.875 1.25931 63.1343 0 64.6875 0C66.2407 0 67.5 1.25931 67.5 2.8125Z" fill="#7E9FC2"/>
<path d="M118.125 2.8125C118.125 4.36569 116.866 5.625 115.312 5.625C113.759 5.625 112.5 4.36569 112.5 2.8125C112.5 1.25931 113.759 0 115.312 0C116.866 0 118.125 1.25931 118.125 2.8125Z" fill="#7E9FC2"/>
<path d="M45 120.938V143.438H61.875V97.0684C52.0505 100.547 45 109.921 45 120.938Z" fill="#DAD8DB"/>
<path d="M135 120.937V143.437H118.125V97.0669C127.95 100.545 135 109.921 135 120.937Z" fill="#DAD8DB"/>
<path d="M45 120.938V143.438H50.625V105.029C47.1149 109.366 45 114.92 45 120.938Z" fill="#C8C5C9"/>
<defs>
<clipPath id="clip0">
<rect x="78" y="107" width="24" height="24" fill="white"/>
</clipPath>
</defs>
</svg>
