<svg width="180" height="180" viewBox="0 0 180 180" fill="none" xmlns="http://www.w3.org/2000/svg">
<g clip-path="url(#clip0)">
<path d="M176.25 33.75V161.25C176.25 169.534 169.534 176.25 161.25 176.25H18.7499C10.4657 176.25 3.74976 169.534 3.74976 161.25V33.75H176.25Z" fill="white"/>
<path d="M176.25 18.7499V33.75H3.75012V18.7499C3.75012 10.4657 10.466 3.74976 18.7502 3.74976H161.25C169.534 3.75011 176.25 10.4657 176.25 18.7499Z" fill="#ECEAEC"/>
<path d="M135 146.25C141.213 146.25 146.25 141.213 146.25 135C146.25 128.787 141.213 123.75 135 123.75C128.787 123.75 123.75 128.787 123.75 135C123.75 141.213 128.787 146.25 135 146.25Z" fill="white"/>
<path d="M176.25 127.5V142.5H164.025C163.315 145.207 162.243 147.806 160.837 150.225L169.462 158.85L158.85 169.463L150.225 160.838C147.805 162.243 145.207 163.316 142.5 164.025V176.25H127.5V164.025C124.793 163.315 122.194 162.243 119.775 160.837L111.15 169.462L100.537 158.85L109.162 150.225C107.757 147.805 106.684 145.207 105.975 142.5H93.7498V127.5H105.975C106.684 124.793 107.757 122.194 109.162 119.775L100.537 111.15L111.15 100.537L119.775 109.162C122.195 107.757 124.793 106.684 127.5 105.975V93.7498H142.5V105.975C145.207 106.684 147.805 107.757 150.225 109.162L158.85 100.537L169.462 111.15L160.837 119.775C162.243 122.195 163.315 124.793 164.025 127.5H176.25V127.5ZM146.25 135C146.25 128.787 141.213 123.75 135 123.75C128.787 123.75 123.75 128.787 123.75 135C123.75 141.213 128.787 146.25 135 146.25C141.213 146.25 146.25 141.213 146.25 135Z" fill="#7E9FC2"/>
<path d="M86.2499 60.0002H153.75C155.821 60.0002 157.5 61.6793 157.5 63.7504V71.2502C157.5 73.3213 155.821 75.0004 153.75 75.0004H86.2499C84.1788 75.0004 82.4998 73.3213 82.4998 71.2502V63.7504C82.5001 61.679 84.1788 60.0002 86.2499 60.0002Z" fill="#ECEAEC"/>
<path d="M161.25 0H18.7499C8.39988 0.0123047 0.0123047 8.39988 0 18.7499V161.25C0.0123047 171.6 8.39988 179.988 18.7499 180H101.25V172.5H18.7499C12.5367 172.5 7.49988 167.463 7.49988 161.25V18.7499C7.49988 12.5367 12.5367 7.49988 18.7499 7.49988H161.25C167.463 7.49988 172.5 12.5367 172.5 18.7499V90H180V18.7499C179.988 8.39988 171.6 0.0123047 161.25 0Z" fill="#D1D9E0"/>
<path d="M15.0001 30H165V37.4999H15.0001V30Z" fill="#DAD8DB"/>
<path d="M18.7499 15H26.2498V22.4999H18.7499V15Z" fill="#DAD8DB"/>
<path d="M33.75 15H41.2499V22.4999H33.75V15Z" fill="#DAD8DB"/>
<path d="M153.75 15H161.25V22.4999H153.75V15Z" fill="#DAD8DB"/>
<path d="M60.0001 45H67.5V165H60.0001V45Z" fill="#ECEAEC"/>
<path d="M176.25 123.75H166.793C166.399 122.625 165.945 121.549 165.439 120.476L172.114 113.801C173.578 112.337 173.578 109.963 172.114 108.498L161.501 97.8858C160.037 96.4219 157.663 96.4219 156.199 97.8858L149.52 104.561C148.453 104.055 147.362 103.604 146.25 103.207V93.7496C146.25 91.6786 144.571 89.9995 142.5 89.9995H127.5C125.429 89.9995 123.75 91.6786 123.75 93.7496V103.207C122.638 103.603 121.546 104.055 120.48 104.561L113.801 97.8749C112.337 96.411 109.963 96.411 108.499 97.8749L97.8859 108.487C96.422 109.952 96.422 112.325 97.8859 113.79L104.561 120.465C104.055 121.538 103.601 122.633 103.207 123.739H93.7498C91.6787 123.739 89.9996 125.418 89.9996 127.489V142.489C89.9996 144.56 91.6787 146.239 93.7498 146.239H103.207C103.601 147.364 104.055 148.44 104.561 149.513L97.8859 156.188C96.422 157.652 96.422 160.026 97.8859 161.491L108.499 172.103C109.963 173.567 112.337 173.567 113.801 172.103L120.48 165.428C121.546 165.934 122.638 166.386 123.75 166.782V176.251C123.75 178.322 125.429 180.001 127.5 180.001H142.5C144.571 180.001 146.25 178.322 146.25 176.251V166.793C147.362 166.397 148.453 165.945 149.52 165.44L156.199 172.115C157.663 173.579 160.037 173.579 161.501 172.115L172.114 161.502C173.578 160.038 173.578 157.664 172.114 156.199L165.439 149.524C165.945 148.452 166.399 147.357 166.793 146.251H176.25C178.321 146.251 180 144.571 180 142.5V127.5C180 125.429 178.321 123.75 176.25 123.75ZM172.5 138.75H164.025C162.317 138.75 160.825 139.903 160.395 141.555C159.768 143.935 158.824 146.221 157.59 148.35C156.742 149.82 156.986 151.676 158.186 152.876L164.16 158.85L158.85 164.16L152.876 158.186C151.676 156.987 149.82 156.742 148.35 157.59C146.221 158.826 143.936 159.77 141.555 160.395C139.903 160.826 138.749 162.318 138.75 164.025V172.5H131.25V164.025C131.25 162.317 130.097 160.825 128.445 160.395C126.064 159.77 123.778 158.826 121.65 157.59C120.18 156.742 118.324 156.986 117.123 158.186L111.15 164.16L105.84 158.85L111.813 152.876C113.014 151.676 113.258 149.82 112.41 148.35C111.175 146.22 110.232 143.935 109.605 141.555C109.174 139.902 107.682 138.749 105.975 138.75H97.4995V131.25H105.975C107.682 131.25 109.174 130.097 109.605 128.445C110.232 126.065 111.175 123.779 112.41 121.65C113.258 120.18 113.013 118.323 111.813 117.123L105.84 111.15L111.15 105.84L117.123 111.813C118.323 113.013 120.18 113.258 121.65 112.41C123.778 111.173 126.064 110.23 128.445 109.604C130.097 109.174 131.25 107.682 131.25 105.975V97.4994H138.75V105.975C138.749 107.682 139.903 109.174 141.555 109.604C143.936 110.229 146.221 111.173 148.35 112.41C149.82 113.258 151.676 113.013 152.876 111.813L158.85 105.84L164.16 111.15L158.186 117.123C156.986 118.323 156.742 120.18 157.59 121.65C158.824 123.779 159.768 126.065 160.395 128.445C160.825 130.097 162.317 131.25 164.025 131.25H172.5V138.75Z" fill="#4B77A6"/>
<path d="M135 120C126.716 120 120 126.716 120 135C120 143.285 126.716 150 135 150C143.284 150 150 143.285 150 135C150 126.716 143.284 120 135 120ZM135 142.5C130.858 142.5 127.5 139.142 127.5 135C127.5 130.858 130.858 127.5 135 127.5C139.142 127.5 142.5 130.858 142.5 135C142.5 139.142 139.142 142.5 135 142.5Z" fill="#4B77A6"/>
<path d="M153.75 78.7501C157.892 78.7501 161.25 75.3924 161.25 71.2503V63.7504C161.25 59.6083 157.892 56.2505 153.75 56.2505H86.2499C82.1078 56.2501 78.75 59.6079 78.75 63.75V71.2499C78.75 75.392 82.1078 78.7498 86.2499 78.7498H153.75V78.7501ZM86.2499 63.75H153.75V71.2499H86.2499V63.75Z" fill="#DAD8DB"/>
<path d="M78.75 86.2498H86.2499V93.7496H78.75V86.2498Z" fill="#DAD8DB"/>
<path d="M78.75 101.25H86.2499V108.75H78.75V101.25Z" fill="#DAD8DB"/>
<path d="M93.7501 86.2498H101.25V93.7496H93.7501V86.2498Z" fill="#DAD8DB"/>
<path d="M22.5 63.7498H41.2499V71.2496H22.5V63.7498Z" fill="#DAD8DB"/>
<path d="M22.5 82.5002H41.2499V90.0001H22.5V82.5002Z" fill="#DAD8DB"/>
<path d="M22.5 101.25H41.2499V108.75H22.5V101.25Z" fill="#DAD8DB"/>
<path d="M22.5 120H41.2499V127.5H22.5V120Z" fill="#DAD8DB"/>
<path d="M22.5 138.75H41.2499V146.25H22.5V138.75Z" fill="#DAD8DB"/>
</g>
<defs>
<clipPath id="clip0">
<rect width="180" height="180" fill="white"/>
</clipPath>
</defs>
</svg>
