<svg width="13" height="13" viewBox="0 0 13 13" fill="none" xmlns="http://www.w3.org/2000/svg">
<g clip-path="url(#clip0)">
<path d="M12.9311 9.48995C12.9153 9.45602 12.9007 9.42788 12.887 9.40534C12.6615 8.99912 12.2305 8.50051 11.5942 7.90937L11.5808 7.89583L11.5741 7.88919L11.5673 7.88239H11.5604C11.2717 7.60713 11.0888 7.42205 11.0123 7.32729C10.8721 7.14678 10.8408 6.96407 10.9173 6.77894C10.9714 6.63907 11.1746 6.34368 11.5265 5.89237C11.7116 5.65318 11.8582 5.46149 11.9664 5.31706C12.7471 4.27917 13.0856 3.61593 12.9817 3.32711L12.9414 3.25962C12.9143 3.21898 12.8444 3.18181 12.7317 3.14791C12.6188 3.11408 12.4744 3.10848 12.2984 3.13103L10.3491 3.14449C10.3175 3.1333 10.2724 3.13435 10.2137 3.14791C10.155 3.16147 10.1257 3.16827 10.1257 3.16827L10.0917 3.18522L10.0648 3.20559C10.0422 3.21905 10.0174 3.24274 9.99031 3.27659C9.96335 3.31033 9.94081 3.34992 9.92279 3.39503C9.71056 3.94103 9.46927 4.44867 9.19847 4.91793C9.0315 5.19775 8.87816 5.44025 8.73812 5.64557C8.59827 5.85083 8.48095 6.00206 8.38626 6.099C8.29143 6.19603 8.20585 6.27377 8.12899 6.33249C8.05225 6.39123 7.99367 6.41606 7.95311 6.40698C7.91245 6.3979 7.87416 6.38889 7.83791 6.37988C7.77478 6.33925 7.724 6.28398 7.68571 6.21405C7.64726 6.14411 7.62137 6.05609 7.60784 5.95004C7.59437 5.84393 7.5864 5.75266 7.58413 5.67592C7.58202 5.59927 7.58299 5.49086 7.58757 5.35099C7.59226 5.21105 7.59437 5.11636 7.59437 5.06672C7.59437 4.89522 7.59771 4.70909 7.60442 4.5083C7.61125 4.3075 7.61677 4.1484 7.6214 4.03119C7.62599 3.91386 7.62813 3.78973 7.62813 3.65887C7.62813 3.528 7.62016 3.42538 7.60442 3.35089C7.58887 3.2765 7.565 3.20428 7.53354 3.13428C7.50189 3.06434 7.45556 3.01024 7.39478 2.97184C7.33388 2.93348 7.25815 2.90304 7.16804 2.88042C6.92886 2.8263 6.6243 2.79702 6.2542 2.79247C5.41495 2.78346 4.87568 2.83765 4.63652 2.95498C4.54177 3.00455 4.45602 3.07228 4.37935 3.15796C4.2981 3.25727 4.28677 3.31146 4.34542 3.32038C4.61621 3.36094 4.8079 3.45797 4.92073 3.61138L4.96138 3.69267C4.99301 3.75133 5.02459 3.85516 5.05619 4.00404C5.08774 4.15293 5.10811 4.31762 5.11707 4.49803C5.13959 4.82749 5.13959 5.10951 5.11707 5.34411C5.09448 5.57882 5.07314 5.76153 5.05277 5.89239C5.03241 6.02325 5.00197 6.12929 4.96138 6.21049C4.92073 6.29171 4.89368 6.34136 4.88012 6.35937C4.86658 6.37739 4.85529 6.38875 4.84633 6.3932C4.78768 6.41568 4.72668 6.42713 4.66355 6.42713C4.60032 6.42713 4.52365 6.3955 4.43342 6.3323C4.34322 6.2691 4.2496 6.18228 4.15257 6.07171C4.05553 5.96112 3.9461 5.80657 3.82422 5.60805C3.70244 5.40952 3.57608 5.17489 3.44522 4.90416L3.33695 4.70781C3.26926 4.5815 3.1768 4.39758 3.05948 4.15622C2.94208 3.91476 2.83831 3.6812 2.74811 3.45558C2.71205 3.36082 2.65788 3.28868 2.58569 3.23904L2.55181 3.21867C2.52929 3.20066 2.49314 3.18152 2.44354 3.16114C2.39388 3.14077 2.34205 3.12617 2.28786 3.11718L0.433272 3.13065C0.243757 3.13065 0.115169 3.17358 0.0474617 3.25933L0.0203644 3.29989C0.00682766 3.32249 0 3.35857 0 3.40824C0 3.45788 0.0135368 3.51881 0.040634 3.59095C0.31137 4.22725 0.605789 4.84091 0.923891 5.43202C1.24199 6.02313 1.51842 6.49929 1.753 6.86007C1.98763 7.2211 2.22679 7.56185 2.47047 7.88213C2.71416 8.20253 2.87546 8.40786 2.95438 8.49807C3.0334 8.58844 3.09547 8.656 3.14058 8.70112L3.30983 8.86353C3.41812 8.97185 3.57715 9.10158 3.78698 9.25271C3.99686 9.40394 4.22921 9.55282 4.48416 9.69959C4.73915 9.84612 5.0358 9.9657 5.37427 10.0582C5.71269 10.1508 6.04207 10.1879 6.36248 10.17H7.14088C7.29874 10.1564 7.41834 10.1067 7.49964 10.021L7.52657 9.98711C7.54468 9.96018 7.56163 9.91834 7.57728 9.86203C7.59311 9.80563 7.60098 9.7435 7.60098 9.67591C7.59636 9.48191 7.61113 9.30707 7.64489 9.15141C7.67862 8.9958 7.71708 8.87847 7.76008 8.79945C7.80306 8.72051 7.85157 8.65389 7.90555 8.59989C7.95965 8.54576 7.9982 8.51298 8.02081 8.50169C8.04329 8.49034 8.06123 8.48263 8.07477 8.47801C8.18307 8.44193 8.31051 8.47687 8.45731 8.58301C8.60399 8.68905 8.74156 8.81998 8.87024 8.9756C8.99885 9.13135 9.15337 9.3061 9.33383 9.5001C9.51441 9.69416 9.6723 9.83842 9.80762 9.93332L9.94294 10.0145C10.0333 10.0687 10.1506 10.1184 10.2951 10.1635C10.4392 10.2086 10.5655 10.2199 10.674 10.1973L12.4067 10.1703C12.5781 10.1703 12.7114 10.1419 12.806 10.0856C12.9008 10.0292 12.9571 9.96708 12.9753 9.89949C12.9934 9.83183 12.9943 9.75506 12.9787 9.66925C12.9626 9.58364 12.9468 9.52378 12.9311 9.48995Z" fill="#4B77A6"/>
</g>
<defs>
<clipPath id="clip0">
<rect width="13" height="13" fill="white"/>
</clipPath>
</defs>
</svg>
